<?xml version="1.0" encoding="UTF-8" standalone="no" ?>
<!DOCTYPE svg PUBLIC "-//W3C//DTD SVG 1.1//EN" "http://www.w3.org/Graphics/SVG/1.1/DTD/svg11.dtd">
<svg xmlns="http://www.w3.org/2000/svg" xmlns:xlink="http://www.w3.org/1999/xlink" version="1.1" width="1080" height="1080" viewBox="0 0 1080 1080" xml:space="preserve">
<desc>Created with Fabric.js 5.2.4</desc>
<defs>
</defs>
<g transform="matrix(1 0 0 1 540 540)" id="139f8fa0-839e-4956-8b20-7f3a81467725"  >
<rect style="stroke: none; stroke-width: 1; stroke-dasharray: none; stroke-linecap: butt; stroke-dashoffset: 0; stroke-linejoin: miter; stroke-miterlimit: 4; fill: rgb(255,255,255); fill-rule: nonzero; opacity: 1; visibility: hidden;" vector-effect="non-scaling-stroke"  x="-50" y="-50" rx="0" ry="0" width="1080" height="1080" />
</g>
<g transform="matrix(1 0 0 1 540 540)" id="f1aa9e87-ce59-452a-8360-33a313494a99"  >
</g>
<g transform="matrix(1 0 0 1 639.49 479.65)"  >
<path style="stroke: none; stroke-width: 1; stroke-dasharray: none; stroke-linecap: butt; stroke-dashoffset: 0; stroke-linejoin: miter; stroke-miterlimit: 4; fill: rgb(255,255,255); fill-rule: nonzero; opacity: 1;" vector-effect="non-scaling-stroke"  transform=" translate(-669.49, -189.65)" d="M 620.93 168.845 C 618.519 169.509 615.997 170.299 614.566 172.521 C 613.697 173.873 613.594 175.659 614.535 176.964 C 617.396 180.932 625.167 175.462 628.298 179.327 C 629.728 181.09 629.254 183.691 627.499 185.122 C 624.369 187.667 620.535 186.821 616.93 186.339 C 608.645 185.224 599.46 186.418 593.934 193.391 C 590.811 197.319 589.91 202.695 592.187 207.169 C 595.665 213.999 604.211 214.893 611.554 215.153 C 651.389 216.553 691.531 217.928 730.883 211.549 C 736.48 210.64 742.369 209.438 746.053 204.655 C 747.895 202.268 748.614 199.122 747.579 196.292 C 745.682 191.09 739.689 190.26 734.583 189.936 C 731.191 189.723 727.8 189.509 724.417 189.296 C 722.496 189.177 722.385 186.387 724.29 186.11 L 728.124 185.556 C 733.049 184.845 738.765 183.596 740.393 178.568 C 741.429 175.39 740.306 171.952 737.919 169.604 C 733.35 165.122 727.01 164.892 721.025 164.758 C 688.456 164.039 652.63 159.327 620.93 168.845 Z" stroke-linecap="round" />
</g>
<g transform="matrix(1 0 0 1 463.26 433.08)"  >
<path style="stroke: none; stroke-width: 1; stroke-dasharray: none; stroke-linecap: butt; stroke-dashoffset: 0; stroke-linejoin: miter; stroke-miterlimit: 4; fill: rgb(255,255,255); fill-rule: nonzero; opacity: 1;" vector-effect="non-scaling-stroke"  transform=" translate(-493.26, -143.08)" d="M 535.94 170.308 C 491.615 171.162 447.291 172.007 402.967 172.861 C 399.686 172.924 396.097 172.885 393.551 170.822 C 389.306 167.375 390.737 159.992 395.061 156.648 C 399.385 153.312 405.314 153.043 410.761 153.486 C 416.208 153.928 421.765 154.916 427.069 153.588 C 430.65 152.695 434.492 149.359 433.101 145.944 C 432.01 143.272 428.492 142.671 425.615 142.877 C 420.263 143.248 415.069 144.987 409.718 145.225 C 404.358 145.454 398.374 143.715 395.765 139.035 C 392.524 133.225 396.192 125.517 401.868 122.039 C 407.544 118.56 414.524 118.205 421.172 117.944 C 451.876 116.734 482.58 115.517 513.283 114.307 C 535.576 113.43 557.125 112.774 579.41 113.802 C 583.062 113.968 586.833 114.205 590.098 115.865 C 593.355 117.525 595.971 121.011 595.458 124.632 C 594.999 127.873 592.193 130.347 589.165 131.572 C 586.129 132.806 582.817 133.074 579.608 133.738 C 576.88 134.308 574.114 135.217 572.066 137.114 C 570.019 139.003 568.849 142.07 569.853 144.671 C 571.497 148.956 577.592 149.754 579.963 153.675 C 581.971 156.98 580.509 161.525 577.639 164.118 C 574.77 166.711 570.865 167.778 567.07 168.561 C 557.102 170.616 546.098 170.11 535.94 170.308 Z" stroke-linecap="round" />
</g>
<g transform="matrix(1 0 0 1 522.97 540.7)"  >
<path style="stroke: none; stroke-width: 1; stroke-dasharray: none; stroke-linecap: butt; stroke-dashoffset: 0; stroke-linejoin: miter; stroke-miterlimit: 4; fill: rgb(255,255,255); fill-rule: nonzero; opacity: 1;" vector-effect="non-scaling-stroke"  transform=" translate(-552.97, -250.7)" d="M 549.437 274.586 C 535.429 274.871 521.421 275.156 507.413 275.44 C 503.239 275.527 498.963 275.59 495.034 274.191 C 491.105 272.784 487.547 269.567 486.978 265.432 C 486.504 261.938 488.259 258.412 490.86 256.041 C 493.461 253.661 496.812 252.278 500.18 251.235 C 507.65 248.918 515.579 248.088 523.374 248.808 C 526.552 249.1 529.903 249.614 532.805 248.286 C 535.706 246.958 537.532 242.839 535.374 240.499 C 532.235 237.1 525.239 241.108 522.409 237.456 C 520.86 235.448 521.951 232.317 524.006 230.831 C 526.062 229.345 528.726 229.061 531.247 228.831 C 539.73 228.049 548.22 227.266 556.702 226.491 C 572.528 225.037 587.761 226.879 603.651 226.634 C 607.777 226.57 612.204 226.594 615.611 228.926 C 619.019 231.258 620.434 236.847 617.264 239.487 C 614.813 241.527 611.208 240.816 608.022 240.705 C 604.837 240.594 600.805 242.12 600.852 245.306 C 600.892 247.804 603.564 249.448 606.03 249.851 C 608.497 250.254 611.098 249.922 613.437 250.808 C 617.738 252.436 619.651 257.986 618.204 262.349 C 616.758 266.713 612.71 269.82 608.362 271.322 C 604.014 272.824 599.335 272.958 594.734 273.077 C 580.014 273.44 564.149 274.286 549.437 274.586 Z" stroke-linecap="round" />
</g>
<g transform="matrix(1 0 0 1 406.04 615.02)"  >
<path style="stroke: none; stroke-width: 1; stroke-dasharray: none; stroke-linecap: butt; stroke-dashoffset: 0; stroke-linejoin: miter; stroke-miterlimit: 4; fill: rgb(221,33,32); fill-rule: nonzero; opacity: 1;" vector-effect="non-scaling-stroke"  transform=" translate(-436.04, -325.02)" d="M 434.547 328.42 L 439.464 323.337 L 432.61 321.622 L 434.547 328.42 Z" stroke-linecap="round" />
</g>
<g transform="matrix(1 0 0 1 668.4 622.52)"  >
<path style="stroke: none; stroke-width: 1; stroke-dasharray: none; stroke-linecap: butt; stroke-dashoffset: 0; stroke-linejoin: miter; stroke-miterlimit: 4; fill: rgb(39,5,4); fill-rule: nonzero; opacity: 1;" vector-effect="non-scaling-stroke"  transform=" translate(-698.4, -332.52)" d="M 699.896 329.122 L 694.971 334.197 L 701.833 335.92 L 699.896 329.122 Z" stroke-linecap="round" />
</g>
<g transform="matrix(1 0 0 1 616.8 563.54)"  >
<path style="stroke: none; stroke-width: 1; stroke-dasharray: none; stroke-linecap: butt; stroke-dashoffset: 0; stroke-linejoin: miter; stroke-miterlimit: 4; fill: rgb(255,255,255); fill-rule: nonzero; opacity: 1;" vector-effect="non-scaling-stroke"  transform=" translate(-646.8, -273.54)" d="M 643.477 272.466 L 648.892 277.019 L 650.125 270.055 L 643.477 272.466 Z" stroke-linecap="round" />
</g>
<g transform="matrix(1 0 0 1 452.19 397.19)"  >
<path style="stroke: none; stroke-width: 1; stroke-dasharray: none; stroke-linecap: butt; stroke-dashoffset: 0; stroke-linejoin: miter; stroke-miterlimit: 4; fill: rgb(255,255,255); fill-rule: nonzero; opacity: 1;" vector-effect="non-scaling-stroke"  transform=" translate(-482.19, -107.19)" d="M 485.659 103.849 L 478.719 105.209 L 483.375 110.537 L 485.659 103.849 Z" stroke-linecap="round" />
</g>
<g transform="matrix(1 0 0 1 412.19 430.4)"  >
<path style="stroke: none; stroke-width: 1; stroke-dasharray: none; stroke-linecap: butt; stroke-dashoffset: 0; stroke-linejoin: miter; stroke-miterlimit: 4; fill: rgb(254,133,122); fill-rule: nonzero; opacity: 1;" vector-effect="non-scaling-stroke"  transform=" translate(-442.19, -140.4)" d="M 444.241 140.396 C 444.241 139.265 443.324 138.348 442.194 138.348 C 441.063 138.348 440.146 139.265 440.146 140.396 C 440.146 141.526 441.063 142.443 442.194 142.443 C 443.324 142.435 444.241 141.518 444.241 140.396 Z" stroke-linecap="round" />
</g>
<g transform="matrix(1 0 0 1 695.77 534.76)"  >
<path style="stroke: none; stroke-width: 1; stroke-dasharray: none; stroke-linecap: butt; stroke-dashoffset: 0; stroke-linejoin: miter; stroke-miterlimit: 4; fill: rgb(254,133,122); fill-rule: nonzero; opacity: 1;" vector-effect="non-scaling-stroke"  transform=" translate(-725.77, -244.76)" d="M 727.822 244.759 C 727.822 243.629 726.905 242.712 725.775 242.712 C 724.644 242.712 723.727 243.629 723.727 244.759 C 723.727 245.889 724.644 246.806 725.775 246.806 C 726.905 246.806 727.822 245.889 727.822 244.759 Z" stroke-linecap="round" />
</g>
<g transform="matrix(1 0 0 1 669.59 417.79)"  >
<path style="stroke: none; stroke-width: 1; stroke-dasharray: none; stroke-linecap: butt; stroke-dashoffset: 0; stroke-linejoin: miter; stroke-miterlimit: 4; fill: rgb(255,255,255); fill-rule: nonzero; opacity: 1;" vector-effect="non-scaling-stroke"  transform=" translate(-699.59, -127.79)" d="M 701.635 127.787 C 701.635 126.656 700.718 125.739 699.587 125.739 C 698.457 125.739 697.54 126.656 697.54 127.787 C 697.54 128.917 698.457 129.834 699.587 129.834 C 700.726 129.826 701.635 128.917 701.635 127.787 Z" stroke-linecap="round" />
</g>
<g transform="matrix(1 0 0 1 399.46 520.24)"  >
<path style="stroke: none; stroke-width: 1; stroke-dasharray: none; stroke-linecap: butt; stroke-dashoffset: 0; stroke-linejoin: miter; stroke-miterlimit: 4; fill: rgb(255,255,255); fill-rule: nonzero; opacity: 1;" vector-effect="non-scaling-stroke"  transform=" translate(-429.46, -230.24)" d="M 431.511 230.237 C 431.511 229.107 430.594 228.19 429.463 228.19 C 428.333 228.19 427.416 229.107 427.416 230.237 C 427.416 231.368 428.333 232.285 429.463 232.285 C 430.594 232.277 431.511 231.36 431.511 230.237 Z" stroke-linecap="round" />
</g>
<g transform="matrix(1 0 0 1 676.36 463.26)"  >
<path style="stroke: none; stroke-width: 1; stroke-dasharray: none; stroke-linecap: butt; stroke-dashoffset: 0; stroke-linejoin: miter; stroke-miterlimit: 4; fill: rgb(221,33,32); fill-rule: nonzero; opacity: 1;" vector-effect="non-scaling-stroke"  transform=" translate(-706.36, -173.26)" d="M 707.59 173.256 C 707.59 172.576 707.044 172.031 706.364 172.031 C 705.684 172.031 705.139 172.576 705.139 173.256 C 705.139 173.936 705.684 174.481 706.364 174.481 C 707.044 174.481 707.59 173.928 707.59 173.256 Z" stroke-linecap="round" />
</g>
<g transform="matrix(1 0 0 1 662.85 527.4)"  >
<path style="stroke: none; stroke-width: 1; stroke-dasharray: none; stroke-linecap: butt; stroke-dashoffset: 0; stroke-linejoin: miter; stroke-miterlimit: 4; fill: rgb(255,255,255); fill-rule: nonzero; opacity: 1;" vector-effect="non-scaling-stroke"  transform=" translate(-692.85, -237.4)" d="M 694.08 237.4 C 694.08 236.72 693.534 236.175 692.854 236.175 C 692.175 236.175 691.629 236.72 691.629 237.4 C 691.629 238.08 692.175 238.625 692.854 238.625 C 693.534 238.625 694.08 238.08 694.08 237.4 Z" stroke-linecap="round" />
</g>
<g transform="matrix(1 0 0 1 559.15 398.78)"  >
<path style="stroke: none; stroke-width: 1; stroke-dasharray: none; stroke-linecap: butt; stroke-dashoffset: 0; stroke-linejoin: miter; stroke-miterlimit: 4; fill: rgb(39,5,4); fill-rule: nonzero; opacity: 1;" vector-effect="non-scaling-stroke"  transform=" translate(-589.15, -108.78)" d="M 590.378 108.782 C 590.378 108.102 589.832 107.557 589.153 107.557 C 588.473 107.557 587.927 108.102 587.927 108.782 C 587.927 109.462 588.473 110.007 589.153 110.007 C 589.832 110.007 590.378 109.454 590.378 108.782 Z" stroke-linecap="round" />
</g>
<g transform="matrix(1 0 0 1 540.89 497.43)"  >
<path style="stroke: none; stroke-width: 1; stroke-dasharray: none; stroke-linecap: butt; stroke-dashoffset: 0; stroke-linejoin: miter; stroke-miterlimit: 4; fill: rgb(50,68,152); fill-rule: nonzero; opacity: 1;" vector-effect="non-scaling-stroke"  transform=" translate(-570.89, -207.43)" d="M 572.111 207.432 C 572.111 206.752 571.566 206.207 570.886 206.207 C 570.206 206.207 569.661 206.752 569.661 207.432 C 569.661 208.112 570.206 208.657 570.886 208.657 C 571.566 208.657 572.111 208.104 572.111 207.432 Z" stroke-linecap="round" />
</g>
<g transform="matrix(1 0 0 1 377.4 511.65)"  >
<path style="stroke: none; stroke-width: 1; stroke-dasharray: none; stroke-linecap: butt; stroke-dashoffset: 0; stroke-linejoin: miter; stroke-miterlimit: 4; fill: rgb(50,68,152); fill-rule: nonzero; opacity: 1;" vector-effect="non-scaling-stroke"  transform=" translate(-407.4, -221.65)" d="M 408.623 221.652 C 408.623 220.973 408.077 220.427 407.397 220.427 C 406.718 220.427 406.172 220.973 406.172 221.652 C 406.172 222.332 406.718 222.878 407.397 222.878 C 408.077 222.878 408.623 222.332 408.623 221.652 Z" stroke-linecap="round" />
</g>
<g transform="matrix(1 0 0 1 690.91 453.18)"  >
<path style="stroke: none; stroke-width: 1; stroke-dasharray: none; stroke-linecap: butt; stroke-dashoffset: 0; stroke-linejoin: miter; stroke-miterlimit: 4; fill: rgb(254,133,122); fill-rule: nonzero; opacity: 1;" vector-effect="non-scaling-stroke"  transform=" translate(-720.91, -163.18)" d="M 722.133 163.179 C 722.133 162.499 721.588 161.953 720.908 161.953 C 720.228 161.953 719.683 162.499 719.683 163.179 C 719.683 163.859 720.228 164.404 720.908 164.404 C 721.58 164.404 722.133 163.851 722.133 163.179 Z" stroke-linecap="round" />
</g>
<g transform="matrix(1 0 0 1 382.15 483.84)"  >
<path style="stroke: none; stroke-width: 1; stroke-dasharray: none; stroke-linecap: butt; stroke-dashoffset: 0; stroke-linejoin: miter; stroke-miterlimit: 4; fill: rgb(39,5,4); fill-rule: nonzero; opacity: 1;" vector-effect="non-scaling-stroke"  transform=" translate(-412.15, -193.84)" d="M 413.379 193.842 C 413.379 193.163 412.834 192.617 412.154 192.617 C 411.474 192.617 410.929 193.163 410.929 193.842 C 410.929 194.522 411.474 195.068 412.154 195.068 C 412.834 195.068 413.379 194.522 413.379 193.842 Z" stroke-linecap="round" />
</g>
<g transform="matrix(1 0 0 1 531.35 480.95)"  >
<path style="stroke: none; stroke-width: 1; stroke-dasharray: none; stroke-linecap: butt; stroke-dashoffset: 0; stroke-linejoin: miter; stroke-miterlimit: 4; fill: rgb(39,5,4); fill-rule: nonzero; opacity: 1;" vector-effect="non-scaling-stroke"  transform=" translate(-561.35, -190.95)" d="M 562.579 190.949 C 562.579 190.269 562.033 189.724 561.353 189.724 C 560.674 189.724 560.128 190.269 560.128 190.949 C 560.128 191.629 560.674 192.175 561.353 192.175 C 562.025 192.183 562.579 191.629 562.579 190.949 Z" stroke-linecap="round" />
</g>
<g transform="matrix(1 0 0 1 641.3 428.9)"  >
<path style="stroke: none; stroke-width: 1; stroke-dasharray: none; stroke-linecap: butt; stroke-dashoffset: 0; stroke-linejoin: miter; stroke-miterlimit: 4; fill: rgb(255,255,255); fill-rule: nonzero; opacity: 1;" vector-effect="non-scaling-stroke"  transform=" translate(-671.3, -138.9)" d="M 679.021 137.55 C 679.021 133.107 675.266 129.542 670.76 129.85 C 666.91 130.119 663.811 133.265 663.598 137.123 C 663.503 138.83 663.969 140.427 664.823 141.739 C 665.89 143.384 666.728 145.17 667.187 147.083 L 667.4 147.961 L 675.203 147.961 L 675.384 147.202 C 675.859 145.241 676.713 143.407 677.803 141.708 C 678.578 140.506 679.021 139.075 679.021 137.55 Z" stroke-linecap="round" />
</g>
<g transform="matrix(1 0 0 1 641.3 439.62)"  >
<path style="stroke: none; stroke-width: 1; stroke-dasharray: none; stroke-linecap: butt; stroke-dashoffset: 0; stroke-linejoin: miter; stroke-miterlimit: 4; fill: rgb(39,5,4); fill-rule: nonzero; opacity: 1;" vector-effect="non-scaling-stroke"  transform=" translate(-671.3, -149.62)" d="M 675.388 149.92 L 675.198 149.92 L 675.198 149.311 L 675.388 149.311 C 675.87 149.311 676.258 148.924 676.258 148.442 C 676.258 147.96 675.87 147.572 675.388 147.572 L 667.206 147.572 C 666.724 147.572 666.337 147.96 666.337 148.442 C 666.337 148.924 666.724 149.311 667.206 149.311 L 667.396 149.311 L 667.396 149.92 L 667.206 149.92 C 666.724 149.92 666.337 150.307 666.337 150.79 C 666.337 151.272 666.724 151.659 667.206 151.659 L 667.396 151.659 L 675.198 151.659 L 675.388 151.659 C 675.87 151.659 676.258 151.272 676.258 150.79 C 676.258 150.315 675.87 149.92 675.388 149.92 Z" stroke-linecap="round" />
</g>
<g transform="matrix(1 0 0 1 641.3 432.57)"  >
<path style="stroke: rgb(39,5,4); stroke-width: 0.790518; stroke-dasharray: none; stroke-linecap: round; stroke-dashoffset: 0; stroke-linejoin: round; stroke-miterlimit: 10; fill: none; fill-rule: nonzero; opacity: 1;" vector-effect="non-scaling-stroke"  transform=" translate(-671.3, -142.57)" d="M 670.664 146.744 C 670.355 143.954 670.055 141.171 669.747 138.38 C 670.711 138.697 671.913 138.752 672.853 138.38 C 672.616 141.195 672.426 143.938 672.197 146.752" stroke-linecap="round" />
</g>
<g transform="matrix(1 0 0 1 563.53 457.85)"  >
<path style="stroke: none; stroke-width: 1; stroke-dasharray: none; stroke-linecap: butt; stroke-dashoffset: 0; stroke-linejoin: miter; stroke-miterlimit: 4; fill: rgb(254,133,122); fill-rule: nonzero; opacity: 1;" vector-effect="non-scaling-stroke"  transform=" translate(-593.53, -167.85)" d="M 601.252 166.506 C 601.252 162.063 597.497 158.498 592.991 158.807 C 589.141 159.075 586.042 162.222 585.829 166.079 C 585.734 167.787 586.2 169.384 587.054 170.696 C 588.121 172.34 588.959 174.127 589.418 176.04 L 589.631 176.917 L 597.434 176.917 L 597.615 176.158 C 598.09 174.198 598.943 172.364 600.034 170.664 C 600.809 169.463 601.252 168.032 601.252 166.506 Z" stroke-linecap="round" />
</g>
<g transform="matrix(1 0 0 1 563.53 468.57)"  >
<path style="stroke: none; stroke-width: 1; stroke-dasharray: none; stroke-linecap: butt; stroke-dashoffset: 0; stroke-linejoin: miter; stroke-miterlimit: 4; fill: rgb(50,68,152); fill-rule: nonzero; opacity: 1;" vector-effect="non-scaling-stroke"  transform=" translate(-593.53, -178.57)" d="M 597.619 178.877 L 597.43 178.877 L 597.43 178.268 L 597.619 178.268 C 598.102 178.268 598.489 177.881 598.489 177.398 C 598.489 176.916 598.102 176.529 597.619 176.529 L 589.437 176.529 C 588.955 176.529 588.568 176.916 588.568 177.398 C 588.568 177.881 588.955 178.268 589.437 178.268 L 589.627 178.268 L 589.627 178.877 L 589.437 178.877 C 588.955 178.877 588.568 179.264 588.568 179.746 C 588.568 180.228 588.955 180.616 589.437 180.616 L 589.627 180.616 L 597.43 180.616 L 597.619 180.616 C 598.102 180.616 598.489 180.228 598.489 179.746 C 598.481 179.272 598.094 178.877 597.619 178.877 Z" stroke-linecap="round" />
</g>
<g transform="matrix(1 0 0 1 563.54 461.52)"  >
<path style="stroke: rgb(39,5,4); stroke-width: 0.790518; stroke-dasharray: none; stroke-linecap: round; stroke-dashoffset: 0; stroke-linejoin: round; stroke-miterlimit: 10; fill: none; fill-rule: nonzero; opacity: 1;" vector-effect="non-scaling-stroke"  transform=" translate(-593.54, -171.52)" d="M 592.904 175.701 C 592.596 172.91 592.296 170.128 591.987 167.337 C 592.952 167.653 594.153 167.709 595.094 167.337 C 594.857 170.151 594.667 172.894 594.438 175.709" stroke-linecap="round" />
</g>
<g transform="matrix(1 0 0 1 579.55 495.96)"  >
<path style="stroke: none; stroke-width: 1; stroke-dasharray: none; stroke-linecap: butt; stroke-dashoffset: 0; stroke-linejoin: miter; stroke-miterlimit: 4; fill: rgb(242,170,49); fill-rule: nonzero; opacity: 1;" vector-effect="non-scaling-stroke"  transform=" translate(-609.55, -205.96)" d="M 617.264 204.609 C 617.264 200.167 613.51 196.601 609.004 196.91 C 605.154 197.178 602.055 200.325 601.841 204.182 C 601.747 205.89 602.213 207.487 603.067 208.799 C 604.134 210.443 604.972 212.23 605.43 214.143 L 605.644 215.02 L 613.446 215.02 L 613.628 214.261 C 614.102 212.301 614.956 210.467 616.047 208.767 C 616.814 207.566 617.264 206.135 617.264 204.609 Z" stroke-linecap="round" />
</g>
<g transform="matrix(1 0 0 1 579.54 506.68)"  >
<path style="stroke: none; stroke-width: 1; stroke-dasharray: none; stroke-linecap: butt; stroke-dashoffset: 0; stroke-linejoin: miter; stroke-miterlimit: 4; fill: rgb(39,5,4); fill-rule: nonzero; opacity: 1;" vector-effect="non-scaling-stroke"  transform=" translate(-609.54, -216.68)" d="M 613.632 216.98 L 613.442 216.98 L 613.442 216.371 L 613.632 216.371 C 614.114 216.371 614.501 215.984 614.501 215.502 C 614.501 215.019 614.114 214.632 613.632 214.632 L 605.45 214.632 C 604.968 214.632 604.58 215.019 604.58 215.502 C 604.58 215.984 604.968 216.371 605.45 216.371 L 605.64 216.371 L 605.64 216.98 L 605.45 216.98 C 604.968 216.98 604.58 217.367 604.58 217.849 C 604.58 218.332 604.968 218.719 605.45 218.719 L 605.64 218.719 L 613.442 218.719 L 613.632 218.719 C 614.114 218.719 614.501 218.332 614.501 217.849 C 614.501 217.375 614.114 216.98 613.632 216.98 Z" stroke-linecap="round" />
</g>
<g transform="matrix(1 0 0 1 579.54 499.63)"  >
<path style="stroke: rgb(39,5,4); stroke-width: 0.790518; stroke-dasharray: none; stroke-linecap: round; stroke-dashoffset: 0; stroke-linejoin: round; stroke-miterlimit: 10; fill: none; fill-rule: nonzero; opacity: 1;" vector-effect="non-scaling-stroke"  transform=" translate(-609.54, -209.63)" d="M 608.907 213.804 C 608.599 211.013 608.299 208.231 607.99 205.44 C 608.955 205.756 610.156 205.812 611.097 205.44 C 610.86 208.254 610.67 210.997 610.441 213.812" stroke-linecap="round" />
</g>
<g transform="matrix(1 0 0 1 685.75 507.65)"  >
<path style="stroke: none; stroke-width: 1; stroke-dasharray: none; stroke-linecap: butt; stroke-dashoffset: 0; stroke-linejoin: miter; stroke-miterlimit: 4; fill: rgb(254,133,122); fill-rule: nonzero; opacity: 1;" vector-effect="non-scaling-stroke"  transform=" translate(-715.75, -217.65)" d="M 723.472 216.3 C 723.472 211.857 719.717 208.292 715.211 208.6 C 711.361 208.869 708.262 212.015 708.049 215.873 C 707.954 217.581 708.421 219.178 709.274 220.49 C 710.342 222.134 711.179 223.921 711.638 225.834 L 711.851 226.711 L 719.654 226.711 L 719.836 225.952 C 720.31 223.992 721.164 222.158 722.255 220.458 C 723.029 219.257 723.472 217.826 723.472 216.3 Z" stroke-linecap="round" />
</g>
<g transform="matrix(1 0 0 1 685.75 518.37)"  >
<path style="stroke: none; stroke-width: 1; stroke-dasharray: none; stroke-linecap: butt; stroke-dashoffset: 0; stroke-linejoin: miter; stroke-miterlimit: 4; fill: rgb(39,5,4); fill-rule: nonzero; opacity: 1;" vector-effect="non-scaling-stroke"  transform=" translate(-715.75, -228.37)" d="M 719.84 228.671 L 719.65 228.671 L 719.65 228.062 L 719.84 228.062 C 720.322 228.062 720.709 227.675 720.709 227.192 C 720.709 226.71 720.322 226.323 719.84 226.323 L 711.658 226.323 C 711.175 226.323 710.788 226.71 710.788 227.192 C 710.788 227.675 711.175 228.062 711.658 228.062 L 711.847 228.062 L 711.847 228.671 L 711.658 228.671 C 711.175 228.671 710.788 229.058 710.788 229.54 C 710.788 230.022 711.175 230.41 711.658 230.41 L 711.847 230.41 L 719.65 230.41 L 719.84 230.41 C 720.322 230.41 720.709 230.022 720.709 229.54 C 720.709 229.066 720.322 228.671 719.84 228.671 Z" stroke-linecap="round" />
</g>
<g transform="matrix(1 0 0 1 685.75 511.32)"  >
<path style="stroke: rgb(39,5,4); stroke-width: 0.790518; stroke-dasharray: none; stroke-linecap: round; stroke-dashoffset: 0; stroke-linejoin: round; stroke-miterlimit: 10; fill: none; fill-rule: nonzero; opacity: 1;" vector-effect="non-scaling-stroke"  transform=" translate(-715.75, -221.32)" d="M 715.115 225.495 C 714.806 222.704 714.506 219.921 714.198 217.131 C 715.162 217.447 716.364 217.502 717.305 217.131 C 717.067 219.945 716.878 222.688 716.648 225.502" stroke-linecap="round" />
</g>
<g transform="matrix(1 0 0 1 507.34 494.16)"  >
<path style="stroke: none; stroke-width: 1; stroke-dasharray: none; stroke-linecap: butt; stroke-dashoffset: 0; stroke-linejoin: miter; stroke-miterlimit: 4; fill: rgb(255,255,255); fill-rule: nonzero; opacity: 1;" vector-effect="non-scaling-stroke"  transform=" translate(-537.34, -204.16)" d="M 545.057 202.815 C 545.057 198.372 541.302 194.807 536.796 195.115 C 532.946 195.384 529.847 198.53 529.634 202.388 C 529.539 204.096 530.006 205.693 530.859 207.005 C 531.926 208.649 532.764 210.436 533.223 212.349 L 533.436 213.226 L 541.239 213.226 L 541.421 212.467 C 541.895 210.507 542.749 208.673 543.84 206.973 C 544.606 205.772 545.057 204.349 545.057 202.815 Z" stroke-linecap="round" />
</g>
<g transform="matrix(1 0 0 1 507.33 504.89)"  >
<path style="stroke: none; stroke-width: 1; stroke-dasharray: none; stroke-linecap: butt; stroke-dashoffset: 0; stroke-linejoin: miter; stroke-miterlimit: 4; fill: rgb(50,68,152); fill-rule: nonzero; opacity: 1;" vector-effect="non-scaling-stroke"  transform=" translate(-537.33, -214.89)" d="M 541.424 215.194 L 541.235 215.194 L 541.235 214.586 L 541.424 214.586 C 541.907 214.586 542.294 214.198 542.294 213.716 C 542.294 213.234 541.907 212.846 541.424 212.846 L 533.243 212.846 C 532.76 212.846 532.373 213.234 532.373 213.716 C 532.373 214.198 532.76 214.586 533.243 214.586 L 533.432 214.586 L 533.432 215.194 L 533.243 215.194 C 532.76 215.194 532.373 215.582 532.373 216.064 C 532.373 216.546 532.76 216.933 533.243 216.933 L 533.432 216.933 L 541.235 216.933 L 541.424 216.933 C 541.907 216.933 542.294 216.546 542.294 216.064 C 542.294 215.582 541.899 215.194 541.424 215.194 Z" stroke-linecap="round" />
</g>
<g transform="matrix(1 0 0 1 507.34 497.84)"  >
<path style="stroke: rgb(39,5,4); stroke-width: 0.790518; stroke-dasharray: none; stroke-linecap: round; stroke-dashoffset: 0; stroke-linejoin: round; stroke-miterlimit: 10; fill: none; fill-rule: nonzero; opacity: 1;" vector-effect="non-scaling-stroke"  transform=" translate(-537.34, -207.84)" d="M 536.7 212.017 C 536.391 209.227 536.091 206.444 535.783 203.653 C 536.747 203.97 537.949 204.025 538.889 203.653 C 538.652 206.468 538.463 209.211 538.233 212.025" stroke-linecap="round" />
</g>
<g transform="matrix(1 0 0 1 450.14 438.38)"  >
<path style="stroke: none; stroke-width: 1; stroke-dasharray: none; stroke-linecap: butt; stroke-dashoffset: 0; stroke-linejoin: miter; stroke-miterlimit: 4; fill: rgb(254,133,122); fill-rule: nonzero; opacity: 1;" vector-effect="non-scaling-stroke"  transform=" translate(-480.14, -148.38)" d="M 487.858 147.042 C 487.858 142.599 484.103 139.034 479.597 139.342 C 475.747 139.611 472.648 142.757 472.434 146.615 C 472.34 148.323 472.806 149.919 473.66 151.232 C 474.727 152.876 475.565 154.663 476.023 156.568 L 476.237 157.445 L 484.039 157.445 L 484.221 156.686 C 484.695 154.726 485.549 152.892 486.64 151.192 C 487.407 149.999 487.858 148.568 487.858 147.042 Z" stroke-linecap="round" />
</g>
<g transform="matrix(1 0 0 1 450.13 449.11)"  >
<path style="stroke: none; stroke-width: 1; stroke-dasharray: none; stroke-linecap: butt; stroke-dashoffset: 0; stroke-linejoin: miter; stroke-miterlimit: 4; fill: rgb(39,5,4); fill-rule: nonzero; opacity: 1;" vector-effect="non-scaling-stroke"  transform=" translate(-480.13, -159.11)" d="M 484.225 159.413 L 484.035 159.413 L 484.035 158.804 L 484.225 158.804 C 484.707 158.804 485.094 158.416 485.094 157.934 C 485.094 157.452 484.707 157.065 484.225 157.065 L 476.043 157.065 C 475.561 157.065 475.173 157.452 475.173 157.934 C 475.173 158.416 475.561 158.804 476.043 158.804 L 476.233 158.804 L 476.233 159.413 L 476.043 159.413 C 475.561 159.413 475.173 159.8 475.173 160.282 C 475.173 160.764 475.561 161.152 476.043 161.152 L 476.233 161.152 L 484.035 161.152 L 484.225 161.152 C 484.707 161.152 485.094 160.764 485.094 160.282 C 485.094 159.808 484.707 159.413 484.225 159.413 Z" stroke-linecap="round" />
</g>
<g transform="matrix(1 0 0 1 450.14 442.06)"  >
<path style="stroke: rgb(39,5,4); stroke-width: 0.790518; stroke-dasharray: none; stroke-linecap: round; stroke-dashoffset: 0; stroke-linejoin: round; stroke-miterlimit: 10; fill: none; fill-rule: nonzero; opacity: 1;" vector-effect="non-scaling-stroke"  transform=" translate(-480.14, -152.06)" d="M 479.5 156.236 C 479.192 153.446 478.892 150.663 478.583 147.873 C 479.548 148.189 480.749 148.244 481.69 147.873 C 481.453 150.687 481.263 153.43 481.034 156.244" stroke-linecap="round" />
</g>
<g transform="matrix(1 0 0 1 410.17 484.01)"  >
<path style="stroke: none; stroke-width: 1; stroke-dasharray: none; stroke-linecap: butt; stroke-dashoffset: 0; stroke-linejoin: miter; stroke-miterlimit: 4; fill: rgb(242,170,49); fill-rule: nonzero; opacity: 1;" vector-effect="non-scaling-stroke"  transform=" translate(-440.17, -194.01)" d="M 447.889 192.664 C 447.889 188.221 444.134 184.656 439.628 184.964 C 435.779 185.233 432.68 188.379 432.466 192.237 C 432.371 193.945 432.838 195.541 433.692 196.854 C 434.759 198.498 435.597 200.285 436.055 202.198 L 436.269 203.075 L 444.071 203.075 L 444.253 202.316 C 444.727 200.356 445.581 198.522 446.672 196.822 C 447.447 195.62 447.889 194.198 447.889 192.664 Z" stroke-linecap="round" />
</g>
<g transform="matrix(1 0 0 1 410.17 494.74)"  >
<path style="stroke: none; stroke-width: 1; stroke-dasharray: none; stroke-linecap: butt; stroke-dashoffset: 0; stroke-linejoin: miter; stroke-miterlimit: 4; fill: rgb(39,5,4); fill-rule: nonzero; opacity: 1;" vector-effect="non-scaling-stroke"  transform=" translate(-440.17, -204.74)" d="M 444.257 205.043 L 444.067 205.043 L 444.067 204.434 L 444.257 204.434 C 444.739 204.434 445.126 204.047 445.126 203.565 C 445.126 203.083 444.739 202.695 444.257 202.695 L 436.075 202.695 C 435.592 202.695 435.205 203.083 435.205 203.565 C 435.205 204.047 435.592 204.434 436.075 204.434 L 436.264 204.434 L 436.264 205.043 L 436.075 205.043 C 435.592 205.043 435.205 205.43 435.205 205.913 C 435.205 206.395 435.592 206.782 436.075 206.782 L 436.264 206.782 L 444.067 206.782 L 444.257 206.782 C 444.739 206.782 445.126 206.395 445.126 205.913 C 445.126 205.43 444.739 205.043 444.257 205.043 Z" stroke-linecap="round" />
</g>
<g transform="matrix(1 0 0 1 410.17 487.69)"  >
<path style="stroke: rgb(39,5,4); stroke-width: 0.790518; stroke-dasharray: none; stroke-linecap: round; stroke-dashoffset: 0; stroke-linejoin: round; stroke-miterlimit: 10; fill: none; fill-rule: nonzero; opacity: 1;" vector-effect="non-scaling-stroke"  transform=" translate(-440.17, -197.69)" d="M 439.532 201.866 C 439.224 199.075 438.923 196.293 438.615 193.502 C 439.579 193.818 440.781 193.874 441.722 193.502 C 441.485 196.316 441.295 199.06 441.066 201.874" stroke-linecap="round" />
</g>
<g transform="matrix(1 0 0 1 426.83 516.33)"  >
<path style="stroke: none; stroke-width: 1; stroke-dasharray: none; stroke-linecap: butt; stroke-dashoffset: 0; stroke-linejoin: miter; stroke-miterlimit: 4; fill: rgb(254,133,122); fill-rule: nonzero; opacity: 1;" vector-effect="non-scaling-stroke"  transform=" translate(-456.83, -226.33)" d="M 464.547 224.987 C 464.547 220.544 460.792 216.979 456.286 217.287 C 452.436 217.556 449.337 220.702 449.124 224.56 C 449.029 226.267 449.495 227.864 450.349 229.176 C 451.416 230.821 452.254 232.607 452.713 234.52 L 452.926 235.398 L 460.729 235.398 L 460.911 234.639 C 461.385 232.678 462.239 230.844 463.33 229.145 C 464.104 227.951 464.547 226.52 464.547 224.987 Z" stroke-linecap="round" />
</g>
<g transform="matrix(1 0 0 1 426.82 527.06)"  >
<path style="stroke: none; stroke-width: 1; stroke-dasharray: none; stroke-linecap: butt; stroke-dashoffset: 0; stroke-linejoin: miter; stroke-miterlimit: 4; fill: rgb(50,68,152); fill-rule: nonzero; opacity: 1;" vector-effect="non-scaling-stroke"  transform=" translate(-456.82, -237.06)" d="M 460.914 237.366 L 460.724 237.366 L 460.724 236.757 L 460.914 236.757 C 461.396 236.757 461.784 236.37 461.784 235.888 C 461.784 235.405 461.396 235.018 460.914 235.018 L 452.732 235.018 C 452.25 235.018 451.863 235.405 451.863 235.888 C 451.863 236.37 452.25 236.757 452.732 236.757 L 452.922 236.757 L 452.922 237.366 L 452.732 237.366 C 452.25 237.366 451.863 237.753 451.863 238.235 C 451.863 238.718 452.25 239.105 452.732 239.105 L 452.922 239.105 L 460.724 239.105 L 460.914 239.105 C 461.396 239.105 461.784 238.718 461.784 238.235 C 461.784 237.753 461.389 237.366 460.914 237.366 Z" stroke-linecap="round" />
</g>
<g transform="matrix(1 0 0 1 426.84 520.01)"  >
<path style="stroke: rgb(39,5,4); stroke-width: 0.790518; stroke-dasharray: none; stroke-linecap: round; stroke-dashoffset: 0; stroke-linejoin: round; stroke-miterlimit: 10; fill: none; fill-rule: nonzero; opacity: 1;" vector-effect="non-scaling-stroke"  transform=" translate(-456.84, -230.01)" d="M 456.199 234.189 C 455.891 231.398 455.591 228.616 455.282 225.825 C 456.247 226.141 457.448 226.197 458.389 225.825 C 458.152 228.639 457.962 231.382 457.733 234.197" stroke-linecap="round" />
</g>
<g transform="matrix(1 0 0 1 410.71 569.77)"  >
<path style="stroke: none; stroke-width: 1; stroke-dasharray: none; stroke-linecap: butt; stroke-dashoffset: 0; stroke-linejoin: miter; stroke-miterlimit: 4; fill: rgb(255,154,125); fill-rule: nonzero; opacity: 1;" vector-effect="non-scaling-stroke"  transform=" translate(-440.71, -279.77)" d="M 450.207 265.977 C 446.95 263.147 443.732 260.373 440.476 257.543 C 439.693 257.645 439.147 258.444 439.06 259.226 C 438.974 260.009 439.234 260.792 439.487 261.535 C 441.045 266.104 442.602 270.665 444.167 275.234 C 441.155 275.566 438.096 275.693 435.084 276.017 C 433.543 272.894 431.827 269.472 430.286 266.341 C 430.001 265.764 429.772 265.155 429.211 264.839 C 428.649 264.523 427.93 264.499 427.345 264.776 C 428.254 268.879 429.147 272.863 430.056 276.966 C 427.298 273.282 424.475 269.503 421.724 265.819 C 421.337 265.306 420.72 264.499 420.112 264.317 C 419.495 264.136 418.792 264.294 418.317 264.721 C 419.875 268.602 421.353 272.381 422.91 276.262 C 422.215 276.009 421.266 275.906 420.57 275.653 C 418.831 273.416 416.95 271.226 415.211 268.989 C 414.831 268.499 414.072 268.025 413.456 267.985 C 412.839 267.946 412.207 268.23 411.827 268.721 C 413.06 271.614 414.151 274.286 415.384 277.179 C 414.278 276.76 412.792 276.428 411.606 276.483 C 410.42 276.539 409.179 277.187 408.807 278.317 C 414.025 281.195 419.242 284.057 424.452 286.926 C 434.673 292.563 446.444 292.855 457.891 301.993 L 472.61 281.574 L 467.938 278.594 C 462.989 273.116 455.764 270.815 450.207 265.977 Z" stroke-linecap="round" />
</g>
<g transform="matrix(1 0 0 1 418.21 567.37)"  >
<path style="stroke: rgb(39,5,4); stroke-width: 0.790518; stroke-dasharray: none; stroke-linecap: round; stroke-dashoffset: 0; stroke-linejoin: round; stroke-miterlimit: 10; fill: none; fill-rule: nonzero; opacity: 1;" vector-effect="non-scaling-stroke"  transform=" translate(-448.21, -277.37)" d="M 444.321 274.791 C 445.759 277.716 448.842 279.755 452.091 279.945" stroke-linecap="round" />
</g>
<g transform="matrix(1 0 0 1 414.71 570.35)"  >
<path style="stroke: rgb(39,5,4); stroke-width: 0.790518; stroke-dasharray: none; stroke-linecap: round; stroke-dashoffset: 0; stroke-linejoin: round; stroke-miterlimit: 10; fill: none; fill-rule: nonzero; opacity: 1;" vector-effect="non-scaling-stroke"  transform=" translate(-444.71, -280.35)" d="M 435.23 276.017 C 435.618 277.124 436.005 278.231 436.385 279.337 C 442.598 278.895 449.246 280.895 454.195 284.681" stroke-linecap="round" />
</g>
<g transform="matrix(1 0 0 1 400.64 568.85)"  >
<path style="stroke: rgb(39,5,4); stroke-width: 0.790518; stroke-dasharray: none; stroke-linecap: round; stroke-dashoffset: 0; stroke-linejoin: round; stroke-miterlimit: 10; fill: none; fill-rule: nonzero; opacity: 1;" vector-effect="non-scaling-stroke"  transform=" translate(-430.64, -278.85)" d="M 429.502 275.765 C 430.261 277.82 431.012 279.876 431.771 281.931" stroke-linecap="round" />
</g>
<g transform="matrix(1 0 0 1 394.5 570.29)"  >
<path style="stroke: rgb(39,5,4); stroke-width: 0.790518; stroke-dasharray: none; stroke-linecap: round; stroke-dashoffset: 0; stroke-linejoin: round; stroke-miterlimit: 10; fill: none; fill-rule: nonzero; opacity: 1;" vector-effect="non-scaling-stroke"  transform=" translate(-424.5, -280.29)" d="M 422.62 276.326 C 423.877 278.966 425.134 281.614 426.383 284.255" stroke-linecap="round" />
</g>
<g transform="matrix(1 0 0 1 388.41 570.86)"  >
<path style="stroke: rgb(39,5,4); stroke-width: 0.790518; stroke-dasharray: none; stroke-linecap: round; stroke-dashoffset: 0; stroke-linejoin: round; stroke-miterlimit: 10; fill: none; fill-rule: nonzero; opacity: 1;" vector-effect="non-scaling-stroke"  transform=" translate(-418.41, -280.86)" d="M 415.185 277.021 C 416.956 279.874 419.129 282.467 421.635 284.704" stroke-linecap="round" />
</g>
<g transform="matrix(1 0 0 1 670.21 569.77)"  >
<path style="stroke: none; stroke-width: 1; stroke-dasharray: none; stroke-linecap: butt; stroke-dashoffset: 0; stroke-linejoin: miter; stroke-miterlimit: 4; fill: rgb(255,154,125); fill-rule: nonzero; opacity: 1;" vector-effect="non-scaling-stroke"  transform=" translate(-700.21, -279.77)" d="M 690.716 265.977 C 693.973 263.147 697.19 260.372 700.447 257.542 C 701.23 257.645 701.775 258.444 701.862 259.226 C 701.949 260.009 701.688 260.791 701.435 261.534 C 699.878 266.104 698.321 270.665 696.755 275.234 C 699.767 275.566 702.827 275.693 705.838 276.017 C 707.38 272.894 709.095 269.471 710.637 266.341 C 710.921 265.764 711.151 265.155 711.712 264.839 C 712.273 264.523 712.993 264.499 713.578 264.776 C 712.668 268.878 711.775 272.863 710.866 276.965 C 713.625 273.282 716.447 269.503 719.198 265.819 C 719.585 265.305 720.202 264.499 720.811 264.317 C 721.427 264.135 722.131 264.293 722.605 264.72 C 721.048 268.602 719.57 272.38 718.012 276.262 C 718.708 276.009 719.657 275.906 720.352 275.653 C 722.091 273.416 723.973 271.226 725.712 268.989 C 726.091 268.499 726.85 268.025 727.467 267.985 C 728.084 267.946 728.716 268.23 729.095 268.72 C 727.862 271.614 726.771 274.286 725.538 277.179 C 726.645 276.76 728.131 276.428 729.317 276.483 C 730.503 276.539 731.744 277.187 732.115 278.317 C 726.898 281.195 721.68 284.056 716.471 286.926 C 706.249 292.562 694.479 292.855 683.032 301.993 L 668.312 281.574 L 672.984 278.594 C 677.933 273.116 685.166 270.815 690.716 265.977 Z" stroke-linecap="round" />
</g>
<g transform="matrix(1 0 0 1 663.13 568.33)"  >
<path style="stroke: rgb(39,5,4); stroke-width: 0.790518; stroke-dasharray: none; stroke-linecap: round; stroke-dashoffset: 0; stroke-linejoin: round; stroke-miterlimit: 10; fill: none; fill-rule: nonzero; opacity: 1;" vector-effect="non-scaling-stroke"  transform=" translate(-693.13, -278.33)" d="M 696.682 275.314 C 695.394 278.262 692.69 280.547 689.576 281.337" stroke-linecap="round" />
</g>
<g transform="matrix(1 0 0 1 667.48 568.63)"  >
<path style="stroke: rgb(39,5,4); stroke-width: 0.790518; stroke-dasharray: none; stroke-linecap: round; stroke-dashoffset: 0; stroke-linejoin: round; stroke-miterlimit: 10; fill: none; fill-rule: nonzero; opacity: 1;" vector-effect="non-scaling-stroke"  transform=" translate(-697.48, -278.63)" d="M 705.826 275.765 C 705.28 277.204 704.743 278.643 704.197 280.081 C 699.098 280.587 694.237 280.991 689.138 281.497" stroke-linecap="round" />
</g>
<g transform="matrix(1 0 0 1 679.52 570.67)"  >
<path style="stroke: rgb(39,5,4); stroke-width: 0.790518; stroke-dasharray: none; stroke-linecap: round; stroke-dashoffset: 0; stroke-linejoin: round; stroke-miterlimit: 10; fill: none; fill-rule: nonzero; opacity: 1;" vector-effect="non-scaling-stroke"  transform=" translate(-709.52, -280.67)" d="M 710.746 276.192 C 709.932 279.172 709.118 282.16 708.303 285.14" stroke-linecap="round" />
</g>
<g transform="matrix(1 0 0 1 686.37 570.39)"  >
<path style="stroke: rgb(39,5,4); stroke-width: 0.790518; stroke-dasharray: none; stroke-linecap: round; stroke-dashoffset: 0; stroke-linejoin: round; stroke-miterlimit: 10; fill: none; fill-rule: nonzero; opacity: 1;" vector-effect="non-scaling-stroke"  transform=" translate(-716.37, -280.39)" d="M 718.432 275.361 C 717.057 278.712 715.681 282.072 714.306 285.424" stroke-linecap="round" />
</g>
<g transform="matrix(1 0 0 1 691.89 570.69)"  >
<path style="stroke: rgb(39,5,4); stroke-width: 0.790518; stroke-dasharray: none; stroke-linecap: round; stroke-dashoffset: 0; stroke-linejoin: round; stroke-miterlimit: 10; fill: none; fill-rule: nonzero; opacity: 1;" vector-effect="non-scaling-stroke"  transform=" translate(-721.89, -280.69)" d="M 725.477 277.424 C 723.09 279.606 720.695 281.787 718.307 283.961" stroke-linecap="round" />
</g>
<g transform="matrix(1 0 0 1 540.88 639.59)"  >
<path style="stroke: none; stroke-width: 1; stroke-dasharray: none; stroke-linecap: butt; stroke-dashoffset: 0; stroke-linejoin: miter; stroke-miterlimit: 4; fill: rgb(39,5,4); fill-rule: nonzero; opacity: 1;" vector-effect="non-scaling-stroke"  transform=" translate(-570.88, -349.59)" d="M 538.592 340.854 C 546.386 350.941 558.489 357.897 571.224 358.316 C 583.959 358.735 596.987 352.135 603.177 340.996 L 538.592 340.854 Z" stroke-linecap="round" />
</g>
<g transform="matrix(1 0 0 1 540.01 583.5)"  >
<path style="stroke: none; stroke-width: 1; stroke-dasharray: none; stroke-linecap: butt; stroke-dashoffset: 0; stroke-linejoin: miter; stroke-miterlimit: 4; fill: rgb(60,91,191); fill-rule: nonzero; opacity: 1;" vector-effect="non-scaling-stroke"  transform=" translate(-570.01, -293.5)" d="M 671.689 277.454 C 660.376 282.869 649.064 288.482 637.752 293.897 C 631.016 286.79 624.265 279.652 616.661 273.486 C 609.056 267.32 600.858 262.521 591.475 259.739 C 594.202 257.644 594.945 253.573 593.68 250.371 C 592.415 247.169 589.491 244.829 586.265 243.62 C 583.04 242.41 579.53 242.213 576.091 242.292 C 572.652 242.371 569.064 242.553 565.648 242.972 C 562.629 243.343 559.577 243.723 556.747 244.829 C 553.917 245.936 551.293 247.881 549.996 250.632 C 548.7 253.383 549.498 256.529 551.72 258.608 C 541.055 262.885 530.004 266.853 521.83 274.924 C 514.889 281.778 507.427 288.648 499.956 294.917 C 490.162 289.209 480.02 284.126 470.233 278.419 C 464.446 285.818 458.668 293.209 452.881 300.608 C 461.656 308.672 470.612 316.442 479.387 324.514 C 483.854 328.616 489.68 330.988 495.727 331.486 C 501.775 331.984 507.862 330.695 513.545 328.569 C 519.229 326.442 524.565 323.502 529.878 320.569 C 530.273 328.695 530.407 336.593 530.802 344.719 L 610.866 343.565 C 610.985 336.016 610.858 328.901 610.977 321.344 C 617.443 326.11 624.423 330.522 632.265 332.245 C 640.115 333.968 648.147 331.62 654.629 326.885 C 665.451 318.972 676.321 310.925 687.143 303.004 C 681.957 294.387 676.882 286.055 671.689 277.454 Z" stroke-linecap="round" />
</g>
<g transform="matrix(1 0 0 1 530.78 543.16)"  >
<path style="stroke: rgb(39,5,4); stroke-width: 0.790518; stroke-dasharray: none; stroke-linecap: round; stroke-dashoffset: 0; stroke-linejoin: round; stroke-miterlimit: 10; fill: none; fill-rule: nonzero; opacity: 1;" vector-effect="non-scaling-stroke"  transform=" translate(-560.78, -253.16)" d="M 558.656 251.208 C 560.071 252.512 561.486 253.809 562.901 255.113" stroke-linecap="round" />
</g>
<g transform="matrix(1 0 0 1 552.26 542.98)"  >
<path style="stroke: rgb(39,5,4); stroke-width: 0.790518; stroke-dasharray: none; stroke-linecap: round; stroke-dashoffset: 0; stroke-linejoin: round; stroke-miterlimit: 10; fill: none; fill-rule: nonzero; opacity: 1;" vector-effect="non-scaling-stroke"  transform=" translate(-582.26, -252.98)" d="M 579.846 254.972 C 581.459 253.643 583.072 252.323 584.684 250.995" stroke-linecap="round" />
</g>
<g transform="matrix(1 0 0 1 541.89 552.64)"  >
<path style="stroke: rgb(39,5,4); stroke-width: 0.790518; stroke-dasharray: none; stroke-linecap: round; stroke-dashoffset: 0; stroke-linejoin: round; stroke-miterlimit: 10; fill: none; fill-rule: nonzero; opacity: 1;" vector-effect="non-scaling-stroke"  transform=" translate(-571.89, -262.64)" d="M 551.167 258.838 C 552.994 258.134 554.82 257.438 556.646 256.735 C 561.16 260.782 565.816 264.49 570.33 268.537 C 575.191 264.719 580.195 261.17 585.057 257.351 C 587.531 258.308 590.132 259.162 592.614 260.126" stroke-linecap="round" />
</g>
<g transform="matrix(1 0 0 1 499.03 596.33)"  >
<path style="stroke: rgb(39,5,4); stroke-width: 0.790518; stroke-dasharray: none; stroke-linecap: round; stroke-dashoffset: 0; stroke-linejoin: round; stroke-miterlimit: 10; fill: none; fill-rule: nonzero; opacity: 1;" vector-effect="non-scaling-stroke"  transform=" translate(-529.03, -306.33)" d="M 529.624 321.329 C 529.228 311.328 528.833 301.328 528.438 291.328" stroke-linecap="round" />
</g>
<g transform="matrix(1 0 0 1 581.74 596.31)"  >
<path style="stroke: rgb(39,5,4); stroke-width: 0.790518; stroke-dasharray: none; stroke-linecap: round; stroke-dashoffset: 0; stroke-linejoin: round; stroke-miterlimit: 10; fill: none; fill-rule: nonzero; opacity: 1;" vector-effect="non-scaling-stroke"  transform=" translate(-611.74, -306.31)" d="M 611.065 321.32 C 611.515 311.312 611.966 301.304 612.409 291.297" stroke-linecap="round" />
</g>
<g transform="matrix(1 0 0 1 469.91 585.95)"  >
<path style="stroke: rgb(39,5,4); stroke-width: 0.790518; stroke-dasharray: none; stroke-linecap: round; stroke-dashoffset: 0; stroke-linejoin: round; stroke-miterlimit: 10; fill: none; fill-rule: nonzero; opacity: 1;" vector-effect="non-scaling-stroke"  transform=" translate(-499.91, -295.95)" d="M 500.937 293.945 C 500.249 295.281 499.562 296.625 498.874 297.961" stroke-linecap="round" />
</g>
<g transform="matrix(1 0 0 1 608.37 585.21)"  >
<path style="stroke: rgb(39,5,4); stroke-width: 0.790518; stroke-dasharray: none; stroke-linecap: round; stroke-dashoffset: 0; stroke-linejoin: round; stroke-miterlimit: 10; fill: none; fill-rule: nonzero; opacity: 1;" vector-effect="non-scaling-stroke"  transform=" translate(-638.37, -295.21)" d="M 637.642 293.621 C 638.124 294.68 638.606 295.739 639.089 296.799" stroke-linecap="round" />
</g>
<g transform="matrix(1 0 0 1 440.51 585.6)"  >
<path style="stroke: rgb(39,5,4); stroke-width: 0.790518; stroke-dasharray: none; stroke-linecap: round; stroke-dashoffset: 0; stroke-linejoin: round; stroke-miterlimit: 10; fill: none; fill-rule: nonzero; opacity: 1;" vector-effect="non-scaling-stroke"  transform=" translate(-470.51, -295.6)" d="M 461.36 307.778 C 467.463 299.659 473.558 291.533 479.661 283.414" stroke-linecap="round" />
</g>
<g transform="matrix(1 0 0 1 429.71 591.25)"  >
<path style="stroke: rgb(39,5,4); stroke-width: 0.790518; stroke-dasharray: none; stroke-linecap: round; stroke-dashoffset: 0; stroke-linejoin: round; stroke-miterlimit: 10; fill: none; fill-rule: nonzero; opacity: 1;" vector-effect="non-scaling-stroke"  transform=" translate(-459.71, -301.25)" d="M 455.882 298.008 C 458.435 300.174 460.981 302.332 463.534 304.498" stroke-linecap="round" />
</g>
<g transform="matrix(1 0 0 1 433.46 586.56)"  >
<path style="stroke: rgb(39,5,4); stroke-width: 0.790518; stroke-dasharray: none; stroke-linecap: round; stroke-dashoffset: 0; stroke-linejoin: round; stroke-miterlimit: 10; fill: none; fill-rule: nonzero; opacity: 1;" vector-effect="non-scaling-stroke"  transform=" translate(-463.46, -296.56)" d="M 459.701 293.684 C 462.207 295.597 464.713 297.518 467.219 299.431" stroke-linecap="round" />
</g>
<g transform="matrix(1 0 0 1 435.33 584.21)"  >
<path style="stroke: rgb(39,5,4); stroke-width: 0.790518; stroke-dasharray: none; stroke-linecap: round; stroke-dashoffset: 0; stroke-linejoin: round; stroke-miterlimit: 10; fill: none; fill-rule: nonzero; opacity: 1;" vector-effect="non-scaling-stroke"  transform=" translate(-465.33, -294.21)" d="M 461.817 291.186 C 464.157 293.201 466.497 295.209 468.845 297.225" stroke-linecap="round" />
</g>
<g transform="matrix(1 0 0 1 439.81 578.71)"  >
<path style="stroke: rgb(39,5,4); stroke-width: 0.790518; stroke-dasharray: none; stroke-linecap: round; stroke-dashoffset: 0; stroke-linejoin: round; stroke-miterlimit: 10; fill: none; fill-rule: nonzero; opacity: 1;" vector-effect="non-scaling-stroke"  transform=" translate(-469.81, -288.71)" d="M 466.049 286.096 C 468.555 287.843 471.069 289.582 473.575 291.329" stroke-linecap="round" />
</g>
<g transform="matrix(1 0 0 1 442.99 574.09)"  >
<path style="stroke: rgb(39,5,4); stroke-width: 0.790518; stroke-dasharray: none; stroke-linecap: round; stroke-dashoffset: 0; stroke-linejoin: round; stroke-miterlimit: 10; fill: none; fill-rule: nonzero; opacity: 1;" vector-effect="non-scaling-stroke"  transform=" translate(-472.99, -284.09)" d="M 469.108 281.304 C 471.693 283.162 474.278 285.019 476.863 286.877" stroke-linecap="round" />
</g>
<g transform="matrix(1 0 0 1 640.55 585.27)"  >
<path style="stroke: rgb(39,5,4); stroke-width: 0.790518; stroke-dasharray: none; stroke-linecap: round; stroke-dashoffset: 0; stroke-linejoin: round; stroke-miterlimit: 10; fill: none; fill-rule: nonzero; opacity: 1;" vector-effect="non-scaling-stroke"  transform=" translate(-670.55, -295.27)" d="M 663.099 281.326 C 668.064 290.623 673.028 299.927 677.993 309.224" stroke-linecap="round" />
</g>
<g transform="matrix(1 0 0 1 638.16 572.24)"  >
<path style="stroke: rgb(39,5,4); stroke-width: 0.790518; stroke-dasharray: none; stroke-linecap: round; stroke-dashoffset: 0; stroke-linejoin: round; stroke-miterlimit: 10; fill: none; fill-rule: nonzero; opacity: 1;" vector-effect="non-scaling-stroke"  transform=" translate(-668.16, -282.24)" d="M 664.826 283.879 C 667.047 282.788 669.269 281.697 671.49 280.606" stroke-linecap="round" />
</g>
<g transform="matrix(1 0 0 1 639.24 574.95)"  >
<path style="stroke: rgb(39,5,4); stroke-width: 0.790518; stroke-dasharray: none; stroke-linecap: round; stroke-dashoffset: 0; stroke-linejoin: round; stroke-miterlimit: 10; fill: none; fill-rule: nonzero; opacity: 1;" vector-effect="non-scaling-stroke"  transform=" translate(-669.24, -284.95)" d="M 666.067 286.582 C 668.178 285.491 670.288 284.408 672.407 283.318" stroke-linecap="round" />
</g>
<g transform="matrix(1 0 0 1 643.46 581.91)"  >
<path style="stroke: rgb(39,5,4); stroke-width: 0.790518; stroke-dasharray: none; stroke-linecap: round; stroke-dashoffset: 0; stroke-linejoin: round; stroke-miterlimit: 10; fill: none; fill-rule: nonzero; opacity: 1;" vector-effect="non-scaling-stroke"  transform=" translate(-673.46, -291.91)" d="M 670.107 293.571 C 672.344 292.464 674.581 291.358 676.818 290.251" stroke-linecap="round" />
</g>
<g transform="matrix(1 0 0 1 645.32 584.46)"  >
<path style="stroke: rgb(39,5,4); stroke-width: 0.790518; stroke-dasharray: none; stroke-linecap: round; stroke-dashoffset: 0; stroke-linejoin: round; stroke-miterlimit: 10; fill: none; fill-rule: nonzero; opacity: 1;" vector-effect="non-scaling-stroke"  transform=" translate(-675.32, -294.46)" d="M 671.501 296.433 C 674.047 295.121 676.584 293.809 679.13 292.496" stroke-linecap="round" />
</g>
<g transform="matrix(1 0 0 1 648.1 589.71)"  >
<path style="stroke: rgb(39,5,4); stroke-width: 0.790518; stroke-dasharray: none; stroke-linecap: round; stroke-dashoffset: 0; stroke-linejoin: round; stroke-miterlimit: 10; fill: none; fill-rule: nonzero; opacity: 1;" vector-effect="non-scaling-stroke"  transform=" translate(-678.1, -299.71)" d="M 674.06 301.722 C 676.756 300.378 679.452 299.034 682.139 297.69" stroke-linecap="round" />
</g>
<g transform="matrix(1 0 0 1 650.94 594.57)"  >
<path style="stroke: rgb(39,5,4); stroke-width: 0.790518; stroke-dasharray: none; stroke-linecap: round; stroke-dashoffset: 0; stroke-linejoin: round; stroke-miterlimit: 10; fill: none; fill-rule: nonzero; opacity: 1;" vector-effect="non-scaling-stroke"  transform=" translate(-680.94, -304.57)" d="M 677.095 307.254 C 679.656 305.468 682.217 303.681 684.779 301.894" stroke-linecap="round" />
</g>
<g transform="matrix(1 0 0 1 541.01 621.39)"  >
<path style="stroke: rgb(39,5,4); stroke-width: 0.790518; stroke-dasharray: none; stroke-linecap: round; stroke-dashoffset: 0; stroke-linejoin: round; stroke-miterlimit: 10; fill: none; fill-rule: nonzero; opacity: 1;" vector-effect="non-scaling-stroke"  transform=" translate(-571.01, -331.39)" d="M 530.992 333.171 C 557.672 331.985 584.344 330.799 611.024 329.614" stroke-linecap="round" />
</g>
<g transform="matrix(1 0 0 1 505.15 627.91)"  >
<path style="stroke: rgb(39,5,4); stroke-width: 0.790518; stroke-dasharray: none; stroke-linecap: round; stroke-dashoffset: 0; stroke-linejoin: round; stroke-miterlimit: 10; fill: none; fill-rule: nonzero; opacity: 1;" vector-effect="non-scaling-stroke"  transform=" translate(-535.15, -337.91)" d="M 534.666 333.044 C 534.99 336.286 535.314 339.527 535.639 342.768" stroke-linecap="round" />
</g>
<g transform="matrix(1 0 0 1 513.41 627.78)"  >
<path style="stroke: rgb(39,5,4); stroke-width: 0.790518; stroke-dasharray: none; stroke-linecap: round; stroke-dashoffset: 0; stroke-linejoin: round; stroke-miterlimit: 10; fill: none; fill-rule: nonzero; opacity: 1;" vector-effect="non-scaling-stroke"  transform=" translate(-543.41, -337.78)" d="M 543.136 332.87 C 543.318 336.143 543.5 339.416 543.681 342.681" stroke-linecap="round" />
</g>
<g transform="matrix(1 0 0 1 517.23 627.91)"  >
<path style="stroke: rgb(39,5,4); stroke-width: 0.790518; stroke-dasharray: none; stroke-linecap: round; stroke-dashoffset: 0; stroke-linejoin: round; stroke-miterlimit: 10; fill: none; fill-rule: nonzero; opacity: 1;" vector-effect="non-scaling-stroke"  transform=" translate(-547.23, -337.91)" d="M 547.094 332.769 C 547.181 336.199 547.276 339.63 547.363 343.061" stroke-linecap="round" />
</g>
<g transform="matrix(1 0 0 1 527.59 627.57)"  >
<path style="stroke: rgb(39,5,4); stroke-width: 0.790518; stroke-dasharray: none; stroke-linecap: round; stroke-dashoffset: 0; stroke-linejoin: round; stroke-miterlimit: 10; fill: none; fill-rule: nonzero; opacity: 1;" vector-effect="non-scaling-stroke"  transform=" translate(-557.59, -337.57)" d="M 557.281 332.191 C 557.486 335.78 557.692 339.369 557.897 342.958" stroke-linecap="round" />
</g>
<g transform="matrix(1 0 0 1 537.58 627.29)"  >
<path style="stroke: rgb(39,5,4); stroke-width: 0.790518; stroke-dasharray: none; stroke-linecap: round; stroke-dashoffset: 0; stroke-linejoin: round; stroke-miterlimit: 10; fill: none; fill-rule: nonzero; opacity: 1;" vector-effect="non-scaling-stroke"  transform=" translate(-567.58, -337.29)" d="M 567.371 331.708 C 567.513 335.431 567.648 339.147 567.79 342.87" stroke-linecap="round" />
</g>
<g transform="matrix(1 0 0 1 542.63 627.29)"  >
<path style="stroke: rgb(39,5,4); stroke-width: 0.790518; stroke-dasharray: none; stroke-linecap: round; stroke-dashoffset: 0; stroke-linejoin: round; stroke-miterlimit: 10; fill: none; fill-rule: nonzero; opacity: 1;" vector-effect="non-scaling-stroke"  transform=" translate(-572.63, -337.29)" d="M 572.349 331.423 C 572.53 335.336 572.712 339.249 572.902 343.163" stroke-linecap="round" />
</g>
<g transform="matrix(1 0 0 1 550.34 626.86)"  >
<path style="stroke: rgb(39,5,4); stroke-width: 0.790518; stroke-dasharray: none; stroke-linecap: round; stroke-dashoffset: 0; stroke-linejoin: round; stroke-miterlimit: 10; fill: none; fill-rule: nonzero; opacity: 1;" vector-effect="non-scaling-stroke"  transform=" translate(-580.34, -336.86)" d="M 580.198 331.235 C 580.293 334.99 580.395 338.737 580.49 342.492" stroke-linecap="round" />
</g>
<g transform="matrix(1 0 0 1 554.1 626.71)"  >
<path style="stroke: rgb(39,5,4); stroke-width: 0.790518; stroke-dasharray: none; stroke-linecap: round; stroke-dashoffset: 0; stroke-linejoin: round; stroke-miterlimit: 10; fill: none; fill-rule: nonzero; opacity: 1;" vector-effect="non-scaling-stroke"  transform=" translate(-584.1, -336.71)" d="M 583.973 330.942 C 584.06 334.792 584.139 338.634 584.226 342.483" stroke-linecap="round" />
</g>
<g transform="matrix(1 0 0 1 559.9 626.47)"  >
<path style="stroke: rgb(39,5,4); stroke-width: 0.790518; stroke-dasharray: none; stroke-linecap: round; stroke-dashoffset: 0; stroke-linejoin: round; stroke-miterlimit: 10; fill: none; fill-rule: nonzero; opacity: 1;" vector-effect="non-scaling-stroke"  transform=" translate(-589.9, -336.47)" d="M 589.841 330.46 C 589.88 334.468 589.92 338.476 589.959 342.483" stroke-linecap="round" />
</g>
<g transform="matrix(1 0 0 1 570.83 625.89)"  >
<path style="stroke: rgb(39,5,4); stroke-width: 0.790518; stroke-dasharray: none; stroke-linecap: round; stroke-dashoffset: 0; stroke-linejoin: round; stroke-miterlimit: 10; fill: none; fill-rule: nonzero; opacity: 1;" vector-effect="non-scaling-stroke"  transform=" translate(-600.83, -335.89)" d="M 600.46 330.46 C 600.705 334.08 600.95 337.701 601.195 341.321" stroke-linecap="round" />
</g>
<g transform="matrix(1 0 0 1 576.13 625.27)"  >
<path style="stroke: rgb(39,5,4); stroke-width: 0.790518; stroke-dasharray: none; stroke-linecap: round; stroke-dashoffset: 0; stroke-linejoin: round; stroke-miterlimit: 10; fill: none; fill-rule: nonzero; opacity: 1;" vector-effect="non-scaling-stroke"  transform=" translate(-606.13, -335.27)" d="M 606.149 329.788 C 606.133 333.44 606.117 337.1 606.102 340.752" stroke-linecap="round" />
</g>
<g transform="matrix(1 0 0 1 541 508)"  >
<path style="stroke: rgb(39,5,4); stroke-width: 0.790518; stroke-dasharray: none; stroke-linecap: round; stroke-dashoffset: 0; stroke-linejoin: round; stroke-miterlimit: 10; fill: none; fill-rule: nonzero; opacity: 1;" vector-effect="non-scaling-stroke"  transform=" translate(-571, -218)" d="M 568.904 216.504 C 570.042 217.255 570.991 218.291 571.631 219.493 C 571.655 218.394 572.216 217.319 573.102 216.662" stroke-linecap="round" />
</g>
<g transform="matrix(1 0 0 1 540.92 519.95)"  >
<path style="stroke: none; stroke-width: 1; stroke-dasharray: none; stroke-linecap: butt; stroke-dashoffset: 0; stroke-linejoin: miter; stroke-miterlimit: 4; fill: rgb(39,5,4); fill-rule: nonzero; opacity: 1;" vector-effect="non-scaling-stroke"  transform=" translate(-570.92, -229.95)" d="M 590.117 230.488 C 589.769 229.524 588.907 228.583 587.888 228.686 C 588.275 227.215 587.911 225.579 586.939 224.409 C 585.975 223.239 584.489 222.812 582.979 222.915 C 582.741 220.385 580.892 218.085 578.473 217.318 C 576.054 216.543 573.16 217.397 571.5 219.318 C 568.781 217.492 565.168 217.073 562.101 218.227 C 559.034 219.381 556.536 222.124 555.698 225.294 C 554.52 225.065 553.231 225.508 552.441 226.409 C 551.65 227.31 551.374 228.646 551.753 229.784 C 552.133 230.923 553.492 231.927 554.662 232.172 C 554.48 232.82 554.678 233.563 555.168 234.022 C 555.658 234.48 556.267 234.701 556.907 234.472 C 557.176 235.816 557.445 237.16 557.714 238.504 C 558.101 240.464 560.038 241.729 561.919 242.417 C 563.793 243.105 565.951 242.994 567.745 242.124 L 584.749 240.235 C 585.326 238.282 586.062 236.275 586.639 234.314 C 587.658 234.417 588.734 234.069 589.445 233.334 C 590.164 232.599 590.465 231.452 590.117 230.488 Z" stroke-linecap="round" />
</g>
<g transform="matrix(1 0 0 1 541.29 535.99)"  >
<path style="stroke: none; stroke-width: 1; stroke-dasharray: none; stroke-linecap: butt; stroke-dashoffset: 0; stroke-linejoin: miter; stroke-miterlimit: 4; fill: rgb(255,154,125); fill-rule: nonzero; opacity: 1;" vector-effect="non-scaling-stroke"  transform=" translate(-571.29, -245.99)" d="M 587.353 239.053 C 586.452 237.243 584.421 236.057 582.397 236.16 C 581.923 237.124 581.069 237.883 580.594 238.847 C 580.444 236.8 580.223 234.602 580.065 232.555 C 578.128 233.227 575.709 232.349 574.626 230.61 C 573.82 231.401 572.65 231.804 571.519 231.685 C 570.397 231.567 569.488 231.116 568.863 230.175 C 568.017 230.831 566.658 231.069 565.78 230.46 C 565.701 231.298 565.258 232.088 564.586 232.602 C 563.922 233.116 563.14 233.582 562.31 233.448 C 562.12 235.345 561.938 237.243 561.749 239.14 C 561.156 238.096 560.721 237.322 560.128 236.278 C 558.104 236.191 556.088 237.401 555.203 239.227 C 554.318 241.045 554.618 243.385 555.938 244.918 C 557.258 246.452 559.519 247.108 561.448 246.515 C 561.59 247.606 562.025 248.579 562.666 249.409 C 562.673 251.29 562.681 253.179 562.689 255.061 C 565.464 257.361 568.128 259.503 570.903 261.796 L 579.97 254.966 C 579.994 253.045 580.057 251.148 580.104 249.243 C 580.634 248.436 581.013 247.496 581.179 246.413 C 583.124 246.99 585.377 246.31 586.674 244.76 C 587.978 243.195 588.255 240.863 587.353 239.053 Z" stroke-linecap="round" />
</g>
<g transform="matrix(1 0 0 1 536.38 530.23)"  >
<path style="stroke: rgb(39,5,4); stroke-width: 0.790518; stroke-dasharray: none; stroke-linecap: round; stroke-dashoffset: 0; stroke-linejoin: round; stroke-miterlimit: 10; fill: none; fill-rule: nonzero; opacity: 1;" vector-effect="non-scaling-stroke"  transform=" translate(-566.38, -240.23)" d="M 564.811 239.692 C 565.08 240.269 565.657 240.68 566.29 240.751 C 566.922 240.814 567.578 240.53 567.95 240.016" stroke-linecap="round" />
</g>
<g transform="matrix(1 0 0 1 546.26 529.92)"  >
<path style="stroke: rgb(39,5,4); stroke-width: 0.790518; stroke-dasharray: none; stroke-linecap: round; stroke-dashoffset: 0; stroke-linejoin: round; stroke-miterlimit: 10; fill: none; fill-rule: nonzero; opacity: 1;" vector-effect="non-scaling-stroke"  transform=" translate(-576.26, -239.92)" d="M 574.57 239.716 C 574.965 240.285 575.692 240.617 576.388 240.53 C 577.084 240.444 577.708 239.953 577.953 239.305" stroke-linecap="round" />
</g>
<g transform="matrix(1 0 0 1 541.27 531.06)"  >
<path style="stroke: rgb(39,5,4); stroke-width: 0.790518; stroke-dasharray: none; stroke-linecap: round; stroke-dashoffset: 0; stroke-linejoin: round; stroke-miterlimit: 10; fill: none; fill-rule: nonzero; opacity: 1;" vector-effect="non-scaling-stroke"  transform=" translate(-571.27, -241.06)" d="M 571.471 239.376 C 571.519 240.499 571.558 241.621 571.606 242.744 C 571.384 242.728 571.155 242.712 570.934 242.697" stroke-linecap="round" />
</g>
<g transform="matrix(1 0 0 1 539.87 534.83)"  >
<path style="stroke: rgb(39,5,4); stroke-width: 0.790518; stroke-dasharray: none; stroke-linecap: round; stroke-dashoffset: 0; stroke-linejoin: round; stroke-miterlimit: 10; fill: none; fill-rule: nonzero; opacity: 1;" vector-effect="non-scaling-stroke"  transform=" translate(-569.87, -244.83)" d="M 568.818 244.207 C 568.833 244.681 569.134 245.139 569.569 245.337 C 569.995 245.543 570.541 245.487 570.92 245.195" stroke-linecap="round" />
</g>
<g transform="matrix(1 0 0 1 536.52 523.71)"  >
<path style="stroke: rgb(39,5,4); stroke-width: 0.790518; stroke-dasharray: none; stroke-linecap: round; stroke-dashoffset: 0; stroke-linejoin: round; stroke-miterlimit: 10; fill: none; fill-rule: nonzero; opacity: 1;" vector-effect="non-scaling-stroke"  transform=" translate(-566.52, -233.71)" d="M 564.263 234.516 C 564.722 233.796 565.465 233.251 566.287 233.029 C 567.117 232.808 568.026 232.903 568.785 233.29" stroke-linecap="round" />
</g>
<g transform="matrix(1 0 0 1 545.97 523.59)"  >
<path style="stroke: rgb(39,5,4); stroke-width: 0.790518; stroke-dasharray: none; stroke-linecap: round; stroke-dashoffset: 0; stroke-linejoin: round; stroke-miterlimit: 10; fill: none; fill-rule: nonzero; opacity: 1;" vector-effect="non-scaling-stroke"  transform=" translate(-575.97, -233.59)" d="M 573.627 233.772 C 574.244 233.084 575.2 232.728 576.117 232.847 C 577.034 232.957 577.872 233.542 578.307 234.356" stroke-linecap="round" />
</g>
<g transform="matrix(1 0 0 1 540.39 521.4)"  >
<path style="stroke: rgb(39,5,4); stroke-width: 0.790518; stroke-dasharray: none; stroke-linecap: round; stroke-dashoffset: 0; stroke-linejoin: round; stroke-miterlimit: 10; fill: none; fill-rule: nonzero; opacity: 1;" vector-effect="non-scaling-stroke"  transform=" translate(-570.39, -231.4)" d="M 569.069 229.708 C 569.006 230.491 569.251 231.297 569.733 231.922 C 570.215 232.546 570.943 232.973 571.717 233.099" stroke-linecap="round" />
</g>
<g transform="matrix(1 0 0 1 528.63 530.12)"  >
<path style="stroke: rgb(39,5,4); stroke-width: 0.790518; stroke-dasharray: none; stroke-linecap: round; stroke-dashoffset: 0; stroke-linejoin: round; stroke-miterlimit: 10; fill: none; fill-rule: nonzero; opacity: 1;" vector-effect="non-scaling-stroke"  transform=" translate(-558.63, -240.12)" d="M 557.513 239.346 C 558.256 239.867 558.999 240.389 559.75 240.903" stroke-linecap="round" />
</g>
<g transform="matrix(1 0 0 1 531.07 535.48)"  >
<path style="stroke: rgb(39,5,4); stroke-width: 0.790518; stroke-dasharray: none; stroke-linecap: round; stroke-dashoffset: 0; stroke-linejoin: round; stroke-miterlimit: 10; fill: none; fill-rule: nonzero; opacity: 1;" vector-effect="non-scaling-stroke"  transform=" translate(-561.07, -245.48)" d="M 560.808 244.073 C 560.982 245.005 561.164 245.946 561.338 246.879" stroke-linecap="round" />
</g>
<g transform="matrix(1 0 0 1 551.68 535.08)"  >
<path style="stroke: rgb(39,5,4); stroke-width: 0.790518; stroke-dasharray: none; stroke-linecap: round; stroke-dashoffset: 0; stroke-linejoin: round; stroke-miterlimit: 10; fill: none; fill-rule: nonzero; opacity: 1;" vector-effect="non-scaling-stroke"  transform=" translate(-581.68, -245.08)" d="M 581.993 243.345 C 581.787 244.5 581.574 245.654 581.368 246.816" stroke-linecap="round" />
</g>
<g transform="matrix(1 0 0 1 554.36 530.43)"  >
<path style="stroke: rgb(39,5,4); stroke-width: 0.790518; stroke-dasharray: none; stroke-linecap: round; stroke-dashoffset: 0; stroke-linejoin: round; stroke-miterlimit: 10; fill: none; fill-rule: nonzero; opacity: 1;" vector-effect="non-scaling-stroke"  transform=" translate(-584.36, -240.43)" d="M 582.984 241.045 C 583.901 240.634 584.81 240.231 585.727 239.82" stroke-linecap="round" />
</g>
<g transform="matrix(1 0 0 1 541.36 541.19)"  >
<path style="stroke: rgb(39,5,4); stroke-width: 0.790518; stroke-dasharray: none; stroke-linecap: round; stroke-dashoffset: 0; stroke-linejoin: round; stroke-miterlimit: 10; fill: none; fill-rule: nonzero; opacity: 1;" vector-effect="non-scaling-stroke"  transform=" translate(-571.36, -251.19)" d="M 562.583 249.756 C 564.938 252.009 568.219 253.266 571.476 253.164 C 574.733 253.061 577.926 251.598 580.132 249.203" stroke-linecap="round" />
</g>
<g transform="matrix(1 0 0 1 508.04 677.35)"  >
<path style="stroke: none; stroke-width: 1; stroke-dasharray: none; stroke-linecap: butt; stroke-dashoffset: 0; stroke-linejoin: miter; stroke-miterlimit: 4; fill: rgb(221,33,32); fill-rule: nonzero; opacity: 1;" vector-effect="non-scaling-stroke"  transform=" translate(-538.04, -387.35)" d="M 525.331 375.889 C 525.331 375.889 546.92 365.518 557.971 360.703 L 561.354 395.818 C 551.9 399.233 542.445 402.648 532.983 406.063 C 530.082 407.107 525.876 409.312 523.267 410.957 C 520.224 412.87 518.319 414.158 514.73 413.984 C 514.777 400.64 518.335 387.265 525.331 375.889 Z" stroke-linecap="round" />
</g>
<g transform="matrix(1 0 0 1 509.77 689.26)"  >
<path style="stroke: rgb(39,5,4); stroke-width: 0.790518; stroke-dasharray: none; stroke-linecap: round; stroke-dashoffset: 0; stroke-linejoin: round; stroke-miterlimit: 10; fill: none; fill-rule: nonzero; opacity: 1;" vector-effect="non-scaling-stroke"  transform=" translate(-539.77, -399.26)" d="M 538.806 395.945 C 539.446 398.151 540.087 400.364 540.727 402.57" stroke-linecap="round" />
</g>
<g transform="matrix(1 0 0 1 514.39 686.93)"  >
<path style="stroke: rgb(39,5,4); stroke-width: 0.790518; stroke-dasharray: none; stroke-linecap: round; stroke-dashoffset: 0; stroke-linejoin: round; stroke-miterlimit: 10; fill: none; fill-rule: nonzero; opacity: 1;" vector-effect="non-scaling-stroke"  transform=" translate(-544.39, -396.93)" d="M 543.38 393.463 C 544.052 395.771 544.724 398.079 545.395 400.388" stroke-linecap="round" />
</g>
<g transform="matrix(1 0 0 1 519.4 685.77)"  >
<path style="stroke: rgb(39,5,4); stroke-width: 0.790518; stroke-dasharray: none; stroke-linecap: round; stroke-dashoffset: 0; stroke-linejoin: round; stroke-miterlimit: 10; fill: none; fill-rule: nonzero; opacity: 1;" vector-effect="non-scaling-stroke"  transform=" translate(-549.4, -395.77)" d="M 548.17 393.32 C 548.984 394.956 549.806 396.593 550.621 398.229" stroke-linecap="round" />
</g>
<g transform="matrix(1 0 0 1 571.49 658.43)"  >
<path style="stroke: none; stroke-width: 1; stroke-dasharray: none; stroke-linecap: butt; stroke-dashoffset: 0; stroke-linejoin: miter; stroke-miterlimit: 4; fill: rgb(39,5,4); fill-rule: nonzero; opacity: 1;" vector-effect="non-scaling-stroke"  transform=" translate(-601.49, -368.43)" d="M 630.925 336.877 C 638.53 336.102 646.435 339.486 651.123 345.525 C 655.818 351.565 657.147 360.055 654.522 367.233 C 651.897 374.419 645.194 379.257 637.929 381.636 C 621.818 386.917 572.213 397.478 561.154 400.095 L 547.13 363.818 C 568.174 352.751 601.557 339.857 630.925 336.877 Z" stroke-linecap="round" />
</g>
<g transform="matrix(1 0 0 1 555.19 637.58)"  >
<path style="stroke: rgb(255,255,255); stroke-width: 0.790518; stroke-dasharray: none; stroke-linecap: round; stroke-dashoffset: 0; stroke-linejoin: round; stroke-miterlimit: 10; fill: none; fill-rule: nonzero; opacity: 1;" vector-effect="non-scaling-stroke"  transform=" translate(-585.19, -347.58)" d="M 572.37 352.039 C 580.916 349.066 589.461 346.086 598.007 343.114" stroke-linecap="round" />
</g>
<g transform="matrix(1 0 0 1 614.98 653.88)"  >
<path style="stroke: rgb(255,255,255); stroke-width: 0.790518; stroke-dasharray: none; stroke-linecap: round; stroke-dashoffset: 0; stroke-linejoin: round; stroke-miterlimit: 10; fill: none; fill-rule: nonzero; opacity: 1;" vector-effect="non-scaling-stroke"  transform=" translate(-644.98, -363.88)" d="M 641.956 358.6 C 640.762 360.853 640.888 363.754 642.28 365.897 C 643.671 368.039 646.272 369.328 648.825 369.146" stroke-linecap="round" />
</g>
<g transform="matrix(1 0 0 1 574.93 677.35)"  >
<path style="stroke: none; stroke-width: 1; stroke-dasharray: none; stroke-linecap: butt; stroke-dashoffset: 0; stroke-linejoin: miter; stroke-miterlimit: 4; fill: rgb(221,33,32); fill-rule: nonzero; opacity: 1;" vector-effect="non-scaling-stroke"  transform=" translate(-604.93, -387.35)" d="M 617.643 375.889 C 617.643 375.889 596.054 365.518 585.002 360.703 L 581.619 395.818 C 591.073 399.233 600.528 402.648 609.991 406.063 C 612.892 407.107 617.097 409.312 619.706 410.957 C 622.75 412.87 624.655 414.158 628.244 413.984 C 628.196 400.64 624.639 387.265 617.643 375.889 Z" stroke-linecap="round" />
</g>
<g transform="matrix(1 0 0 1 562.45 682.88)"  >
<path style="stroke: rgb(39,5,4); stroke-width: 0.790518; stroke-dasharray: none; stroke-linecap: round; stroke-dashoffset: 0; stroke-linejoin: round; stroke-miterlimit: 10; fill: none; fill-rule: nonzero; opacity: 1;" vector-effect="non-scaling-stroke"  transform=" translate(-592.45, -392.88)" d="M 594.12 388.007 C 593.006 391.256 591.891 394.513 590.776 397.762" stroke-linecap="round" />
</g>
<g transform="matrix(1 0 0 1 566.95 683.72)"  >
<path style="stroke: rgb(39,5,4); stroke-width: 0.790518; stroke-dasharray: none; stroke-linecap: round; stroke-dashoffset: 0; stroke-linejoin: round; stroke-miterlimit: 10; fill: none; fill-rule: nonzero; opacity: 1;" vector-effect="non-scaling-stroke"  transform=" translate(-596.95, -393.72)" d="M 598.149 388.972 C 597.351 392.142 596.552 395.304 595.754 398.474" stroke-linecap="round" />
</g>
<g transform="matrix(1 0 0 1 572.39 685.42)"  >
<path style="stroke: rgb(39,5,4); stroke-width: 0.790518; stroke-dasharray: none; stroke-linecap: round; stroke-dashoffset: 0; stroke-linejoin: round; stroke-miterlimit: 10; fill: none; fill-rule: nonzero; opacity: 1;" vector-effect="non-scaling-stroke"  transform=" translate(-602.39, -395.42)" d="M 603.494 390.593 C 602.759 393.81 602.015 397.027 601.28 400.245" stroke-linecap="round" />
</g>
<g transform="matrix(1 0 0 1 511.51 658.43)"  >
<path style="stroke: none; stroke-width: 1; stroke-dasharray: none; stroke-linecap: butt; stroke-dashoffset: 0; stroke-linejoin: miter; stroke-miterlimit: 4; fill: rgb(39,5,4); fill-rule: nonzero; opacity: 1;" vector-effect="non-scaling-stroke"  transform=" translate(-541.51, -368.43)" d="M 512.078 336.877 C 504.473 336.102 496.568 339.486 491.88 345.525 C 487.185 351.565 485.857 360.055 488.481 367.233 C 491.106 374.419 497.809 379.257 505.074 381.636 C 521.185 386.917 570.79 397.478 581.849 400.095 L 595.873 363.818 C 574.829 352.751 541.446 339.857 512.078 336.877 Z" stroke-linecap="round" />
</g>
<g transform="matrix(1 0 0 1 542.54 644.08)"  >
<path style="stroke: rgb(255,255,255); stroke-width: 0.790518; stroke-dasharray: none; stroke-linecap: round; stroke-dashoffset: 0; stroke-linejoin: round; stroke-miterlimit: 10; fill: none; fill-rule: nonzero; opacity: 1;" vector-effect="non-scaling-stroke"  transform=" translate(-572.54, -354.08)" d="M 548.636 344.284 C 565.245 348.98 581.316 355.573 596.439 363.881" stroke-linecap="round" />
</g>
<g transform="matrix(1 0 0 1 540.78 667.58)"  >
<path style="stroke: rgb(255,255,255); stroke-width: 0.790518; stroke-dasharray: none; stroke-linecap: round; stroke-dashoffset: 0; stroke-linejoin: round; stroke-miterlimit: 10; fill: none; fill-rule: nonzero; opacity: 1;" vector-effect="non-scaling-stroke"  transform=" translate(-570.78, -377.58)" d="M 559.409 395.075 C 563.156 396.016 566.896 396.956 570.643 397.897 C 574.445 384.458 578.342 370.703 582.145 357.264" stroke-linecap="round" />
</g>
<g transform="matrix(1 0 0 1 467.64 652.43)"  >
<path style="stroke: rgb(255,255,255); stroke-width: 0.790518; stroke-dasharray: none; stroke-linecap: round; stroke-dashoffset: 0; stroke-linejoin: round; stroke-miterlimit: 10; fill: none; fill-rule: nonzero; opacity: 1;" vector-effect="non-scaling-stroke"  transform=" translate(-497.64, -362.43)" d="M 494.376 366.49 C 496.407 366.727 498.542 365.81 499.767 364.166 C 500.992 362.521 501.261 360.213 500.447 358.332" stroke-linecap="round" />
</g>
<g transform="matrix(1 0 0 1 463.3 495.08)"  >
<path style="stroke: none; stroke-width: 1; stroke-dasharray: none; stroke-linecap: butt; stroke-dashoffset: 0; stroke-linejoin: miter; stroke-miterlimit: 4; fill: rgb(253,185,19); fill-rule: nonzero; opacity: 1;" vector-effect="non-scaling-stroke"  transform=" translate(-493.3, -205.08)" d="M 514.314 201.408 C 514.314 189.305 504.085 179.598 491.808 180.443 C 481.318 181.171 472.875 189.748 472.314 200.246 C 472.061 204.894 473.326 209.234 475.658 212.823 C 478.567 217.305 480.844 222.167 482.1 227.369 L 482.678 229.764 L 503.919 229.764 L 504.417 227.693 C 505.713 222.357 508.037 217.353 511.002 212.728 C 513.097 209.455 514.314 205.574 514.314 201.408 Z" stroke-linecap="round" />
</g>
<g transform="matrix(1 0 0 1 462.96 506.78)"  >
<path style="stroke: rgb(39,5,4); stroke-width: 1.26483; stroke-dasharray: none; stroke-linecap: round; stroke-dashoffset: 0; stroke-linejoin: round; stroke-miterlimit: 10; fill: none; fill-rule: nonzero; opacity: 1;" vector-effect="non-scaling-stroke"  transform=" translate(-492.96, -216.78)" d="M 489.095 195.916 C 490.676 193.513 494.012 192.437 496.692 193.465 C 499.38 194.493 501.135 197.528 500.7 200.366 C 500.265 203.212 497.68 205.576 494.81 205.758 C 493.395 205.845 491.988 205.465 490.573 205.584 C 488.225 205.789 486.083 207.521 485.395 209.774 C 484.708 212.026 485.514 214.659 487.348 216.145 C 489.182 217.623 491.925 217.861 493.988 216.714 C 494.138 224.635 494.447 232.556 494.605 240.477" stroke-linecap="round" />
</g>
<g transform="matrix(1 0 0 1 462.43 490.14)"  >
<path style="stroke: rgb(39,5,4); stroke-width: 1.26483; stroke-dasharray: none; stroke-linecap: round; stroke-dashoffset: 0; stroke-linejoin: round; stroke-miterlimit: 10; fill: none; fill-rule: nonzero; opacity: 1;" vector-effect="non-scaling-stroke"  transform=" translate(-492.43, -200.14)" d="M 492.577 191.315 C 492.482 197.196 492.379 203.086 492.284 208.967" stroke-linecap="round" />
</g>
<g transform="matrix(1 0 0 1 465.36 490.05)"  >
<path style="stroke: rgb(39,5,4); stroke-width: 1.26483; stroke-dasharray: none; stroke-linecap: round; stroke-dashoffset: 0; stroke-linejoin: round; stroke-miterlimit: 10; fill: none; fill-rule: nonzero; opacity: 1;" vector-effect="non-scaling-stroke"  transform=" translate(-495.36, -200.05)" d="M 495.18 190.232 C 495.298 196.778 495.417 203.323 495.535 209.869" stroke-linecap="round" />
</g>
<g transform="matrix(1 0 0 1 453.8 482.1)"  >
<path style="stroke: rgb(255,255,255); stroke-width: 0.790518; stroke-dasharray: none; stroke-linecap: round; stroke-dashoffset: 0; stroke-linejoin: round; stroke-miterlimit: 10; fill: none; fill-rule: nonzero; opacity: 1;" vector-effect="non-scaling-stroke"  transform=" translate(-483.8, -192.1)" d="M 491.804 183.969 C 483.187 184.562 476.247 191.613 475.788 200.238" stroke-linecap="round" />
</g>
<g transform="matrix(1 0 0 1 463.29 527.48)"  >
<path style="stroke: none; stroke-width: 1; stroke-dasharray: none; stroke-linecap: butt; stroke-dashoffset: 0; stroke-linejoin: miter; stroke-miterlimit: 4; fill: rgb(60,91,191); fill-rule: nonzero; opacity: 1;" vector-effect="non-scaling-stroke"  transform=" translate(-493.29, -237.48)" d="M 504.425 239.842 C 505.729 239.842 506.789 238.783 506.789 237.479 C 506.789 236.174 505.729 235.115 504.425 235.115 L 503.903 235.115 L 503.903 233.455 L 504.425 233.455 C 505.729 233.455 506.789 232.396 506.789 231.091 C 506.789 229.787 505.729 228.728 504.425 228.728 L 482.148 228.728 C 480.844 228.728 479.785 229.787 479.785 231.091 C 479.785 232.396 480.844 233.455 482.148 233.455 L 482.67 233.455 L 482.67 235.115 L 482.148 235.115 C 480.844 235.115 479.785 236.174 479.785 237.479 C 479.785 238.783 480.844 239.842 482.148 239.842 L 482.67 239.842 L 482.67 241.502 L 482.148 241.502 C 480.844 241.502 479.785 242.562 479.785 243.866 C 479.785 245.17 480.844 246.23 482.148 246.23 L 504.425 246.23 C 505.729 246.23 506.789 245.17 506.789 243.866 C 506.789 242.562 505.729 241.502 504.425 241.502 L 503.903 241.502 L 503.903 239.842 L 504.425 239.842 Z" stroke-linecap="round" />
</g>
<g transform="matrix(1 0 0 1 463.02 523.46)"  >
<path style="stroke: rgb(255,255,255); stroke-width: 0.790518; stroke-dasharray: none; stroke-linecap: round; stroke-dashoffset: 0; stroke-linejoin: round; stroke-miterlimit: 10; fill: none; fill-rule: nonzero; opacity: 1;" vector-effect="non-scaling-stroke"  transform=" translate(-493.02, -233.46)" d="M 482.141 233.455 L 503.904 233.455" stroke-linecap="round" />
</g>
<g transform="matrix(1 0 0 1 463.29 529.84)"  >
<path style="stroke: rgb(255,255,255); stroke-width: 0.790518; stroke-dasharray: none; stroke-linecap: round; stroke-dashoffset: 0; stroke-linejoin: round; stroke-miterlimit: 10; fill: none; fill-rule: nonzero; opacity: 1;" vector-effect="non-scaling-stroke"  transform=" translate(-493.29, -239.84)" d="M 482.67 239.842 L 503.911 239.842" stroke-linecap="round" />
</g>
<g transform="matrix(1 0 0 1 507.98 411.46)"  >
<path style="stroke: none; stroke-width: 1; stroke-dasharray: none; stroke-linecap: butt; stroke-dashoffset: 0; stroke-linejoin: miter; stroke-miterlimit: 4; fill: rgb(253,185,19); fill-rule: nonzero; opacity: 1;" vector-effect="non-scaling-stroke"  transform=" translate(-537.98, -121.46)" d="M 567.311 116.337 C 567.311 99.4439 553.034 85.8865 535.896 87.0723 C 521.255 88.0842 509.477 100.06 508.686 114.717 C 508.338 121.207 510.101 127.27 513.35 132.274 C 517.413 138.535 520.591 145.326 522.346 152.575 L 523.161 155.918 L 552.805 155.918 L 553.509 153.025 C 555.311 145.571 558.56 138.59 562.702 132.132 C 565.619 127.578 567.311 122.163 567.311 116.337 Z" stroke-linecap="round" />
</g>
<g transform="matrix(1 0 0 1 507.98 419.76)"  >
<path style="stroke: rgb(39,5,4); stroke-width: 1.58104; stroke-dasharray: none; stroke-linecap: round; stroke-dashoffset: 0; stroke-linejoin: round; stroke-miterlimit: 10; fill: none; fill-rule: nonzero; opacity: 1;" vector-effect="non-scaling-stroke"  transform=" translate(-537.98, -129.76)" d="M 541.661 132.408 C 544.721 131.681 547.432 130.076 549.527 127.863 C 548.033 126.748 547.566 124.677 548.523 123.025 C 549.479 121.373 551.503 120.74 553.219 121.483 C 553.645 120.044 553.883 118.519 553.883 116.938 C 553.883 115.357 553.645 113.839 553.219 112.392 C 551.503 113.127 549.479 112.503 548.523 110.851 C 547.566 109.199 548.041 107.127 549.527 106.013 C 547.44 103.807 544.721 102.195 541.661 101.467 C 541.448 103.317 539.89 104.764 537.977 104.764 C 536.064 104.764 534.515 103.325 534.294 101.467 C 531.234 102.195 528.523 103.799 526.428 106.013 C 527.922 107.127 528.388 109.199 527.44 110.851 C 526.483 112.503 524.46 113.135 522.744 112.392 C 522.317 113.831 522.08 115.357 522.08 116.938 C 522.08 118.519 522.317 120.037 522.744 121.483 C 524.46 120.748 526.483 121.373 527.44 123.025 C 528.396 124.677 527.922 126.748 526.436 127.863 C 528.523 130.068 531.242 131.681 534.301 132.408 L 536.894 158.045 L 539.914 158.045 L 541.661 132.408 Z M 537.977 123.238 C 534.499 123.238 531.685 120.424 531.685 116.946 C 531.685 113.467 534.499 110.653 537.977 110.653 C 541.456 110.653 544.27 113.467 544.27 116.946 C 544.27 120.424 541.456 123.238 537.977 123.238 Z" stroke-linecap="round" />
</g>
<g transform="matrix(1 0 0 1 494.94 392.84)"  >
<path style="stroke: rgb(255,255,255); stroke-width: 0.790518; stroke-dasharray: none; stroke-linecap: round; stroke-dashoffset: 0; stroke-linejoin: round; stroke-miterlimit: 10; fill: none; fill-rule: nonzero; opacity: 1;" vector-effect="non-scaling-stroke"  transform=" translate(-524.94, -102.84)" d="M 535.792 91.8241 C 524.123 92.6304 514.724 102.18 514.092 113.864" stroke-linecap="round" />
</g>
<g transform="matrix(1 0 0 1 507.96 456.7)"  >
<path style="stroke: none; stroke-width: 1; stroke-dasharray: none; stroke-linecap: butt; stroke-dashoffset: 0; stroke-linejoin: miter; stroke-miterlimit: 4; fill: rgb(221,33,32); fill-rule: nonzero; opacity: 1;" vector-effect="non-scaling-stroke"  transform=" translate(-537.96, -166.7)" d="M 553.513 169.997 C 555.339 169.997 556.81 168.519 556.81 166.701 C 556.81 164.883 555.332 163.404 553.513 163.404 L 552.786 163.404 L 552.786 161.088 L 553.513 161.088 C 555.339 161.088 556.81 159.61 556.81 157.792 C 556.81 155.966 555.332 154.495 553.513 154.495 L 522.414 154.495 C 520.588 154.495 519.118 155.974 519.118 157.792 C 519.118 159.618 520.596 161.088 522.414 161.088 L 523.142 161.088 L 523.142 163.404 L 522.414 163.404 C 520.588 163.404 519.118 164.883 519.118 166.701 C 519.118 168.519 520.596 169.997 522.414 169.997 L 523.142 169.997 L 523.142 172.314 L 522.414 172.314 C 520.588 172.314 519.118 173.792 519.118 175.61 C 519.118 177.436 520.596 178.907 522.414 178.907 L 553.513 178.907 C 555.339 178.907 556.81 177.428 556.81 175.61 C 556.81 173.784 555.332 172.314 553.513 172.314 L 552.786 172.314 L 552.786 169.997 L 553.513 169.997 Z" stroke-linecap="round" />
</g>
<g transform="matrix(1 0 0 1 508.05 451.08)"  >
<path style="stroke: rgb(255,255,255); stroke-width: 0.790518; stroke-dasharray: none; stroke-linecap: round; stroke-dashoffset: 0; stroke-linejoin: round; stroke-miterlimit: 10; fill: none; fill-rule: nonzero; opacity: 1;" vector-effect="non-scaling-stroke"  transform=" translate(-538.05, -161.08)" d="M 523.143 161.081 L 552.954 161.081" stroke-linecap="round" />
</g>
<g transform="matrix(1 0 0 1 508.05 460)"  >
<path style="stroke: rgb(255,255,255); stroke-width: 0.790518; stroke-dasharray: none; stroke-linecap: round; stroke-dashoffset: 0; stroke-linejoin: round; stroke-miterlimit: 10; fill: none; fill-rule: nonzero; opacity: 1;" vector-effect="non-scaling-stroke"  transform=" translate(-538.05, -170)" d="M 523.143 169.998 L 552.954 169.998" stroke-linecap="round" />
</g>
<g transform="matrix(1 0 0 1 601.18 417.33)"  >
<path style="stroke: none; stroke-width: 1; stroke-dasharray: none; stroke-linecap: butt; stroke-dashoffset: 0; stroke-linejoin: miter; stroke-miterlimit: 4; fill: rgb(253,185,19); fill-rule: nonzero; opacity: 1;" vector-effect="non-scaling-stroke"  transform=" translate(-631.18, -127.33)" d="M 646.97 124.568 C 646.97 115.477 639.287 108.188 630.061 108.821 C 622.188 109.366 615.84 115.809 615.421 123.698 C 615.231 127.192 616.18 130.449 617.935 133.145 C 620.117 136.513 621.832 140.165 622.773 144.07 L 623.207 145.872 L 639.16 145.872 L 639.54 144.315 C 640.512 140.307 642.259 136.544 644.488 133.074 C 646.053 130.615 646.97 127.698 646.97 124.568 Z" stroke-linecap="round" />
</g>
<g transform="matrix(1 0 0 1 601.37 423.97)"  >
<path style="stroke: rgb(39,5,4); stroke-width: 1.26483; stroke-dasharray: none; stroke-linecap: round; stroke-dashoffset: 0; stroke-linejoin: round; stroke-miterlimit: 10; fill: none; fill-rule: nonzero; opacity: 1;" vector-effect="non-scaling-stroke"  transform=" translate(-631.37, -133.97)" d="M 633.951 131.122 C 635.563 130.355 637.042 129.248 638.022 127.762 C 639.01 126.276 639.453 124.395 639.01 122.663 C 638.567 120.94 637.152 119.438 635.397 119.114 C 633.642 118.79 631.445 119.707 630.876 121.391 C 629.832 119.723 627.318 119.343 625.666 120.41 C 624.014 121.478 623.287 123.667 623.65 125.596 C 624.022 127.533 625.342 129.185 626.97 130.292 C 628.156 131.098 629.524 131.644 630.947 131.841 C 630.955 137.565 631.097 143.169 631.105 148.893" stroke-linecap="round" />
</g>
<g transform="matrix(1 0 0 1 594.05 407.72)"  >
<path style="stroke: rgb(255,255,255); stroke-width: 0.790518; stroke-dasharray: none; stroke-linecap: round; stroke-dashoffset: 0; stroke-linejoin: round; stroke-miterlimit: 10; fill: none; fill-rule: nonzero; opacity: 1;" vector-effect="non-scaling-stroke"  transform=" translate(-624.05, -117.72)" d="M 629.053 112.632 C 623.67 113.004 619.33 117.415 619.038 122.806" stroke-linecap="round" />
</g>
<g transform="matrix(1 0 0 1 601.18 441.66)"  >
<path style="stroke: none; stroke-width: 1; stroke-dasharray: none; stroke-linecap: butt; stroke-dashoffset: 0; stroke-linejoin: miter; stroke-miterlimit: 4; fill: rgb(60,91,191); fill-rule: nonzero; opacity: 1;" vector-effect="non-scaling-stroke"  transform=" translate(-631.18, -151.66)" d="M 639.548 153.438 C 640.529 153.438 641.327 152.64 641.327 151.66 C 641.327 150.679 640.529 149.881 639.548 149.881 L 639.161 149.881 L 639.161 148.64 L 639.548 148.64 C 640.529 148.64 641.327 147.841 641.327 146.861 C 641.327 145.881 640.529 145.082 639.548 145.082 L 622.813 145.082 C 621.833 145.082 621.034 145.881 621.034 146.861 C 621.034 147.841 621.833 148.64 622.813 148.64 L 623.2 148.64 L 623.2 149.881 L 622.813 149.881 C 621.833 149.881 621.034 150.679 621.034 151.66 C 621.034 152.64 621.833 153.438 622.813 153.438 L 623.2 153.438 L 623.2 154.679 L 622.813 154.679 C 621.833 154.679 621.034 155.478 621.034 156.458 C 621.034 157.438 621.833 158.237 622.813 158.237 L 639.548 158.237 C 640.529 158.237 641.327 157.438 641.327 156.458 C 641.327 155.478 640.529 154.679 639.548 154.679 L 639.161 154.679 L 639.161 153.438 L 639.548 153.438 L 639.548 153.438 Z" stroke-linecap="round" />
</g>
<g transform="matrix(1 0 0 1 601.19 438.64)"  >
<path style="stroke: rgb(255,255,255); stroke-width: 0.790518; stroke-dasharray: none; stroke-linecap: round; stroke-dashoffset: 0; stroke-linejoin: round; stroke-miterlimit: 10; fill: none; fill-rule: nonzero; opacity: 1;" vector-effect="non-scaling-stroke"  transform=" translate(-631.19, -148.64)" d="M 623.218 148.639 L 639.17 148.639" stroke-linecap="round" />
</g>
<g transform="matrix(1 0 0 1 601.19 443.44)"  >
<path style="stroke: rgb(255,255,255); stroke-width: 0.790518; stroke-dasharray: none; stroke-linecap: round; stroke-dashoffset: 0; stroke-linejoin: round; stroke-miterlimit: 10; fill: none; fill-rule: nonzero; opacity: 1;" vector-effect="non-scaling-stroke"  transform=" translate(-631.19, -153.44)" d="M 639.17 153.439 L 623.218 153.439" stroke-linecap="round" />
</g>
<g transform="matrix(1 0 0 1 627.31 497.05)"  >
<path style="stroke: none; stroke-width: 1; stroke-dasharray: none; stroke-linecap: butt; stroke-dashoffset: 0; stroke-linejoin: miter; stroke-miterlimit: 4; fill: rgb(253,185,19); fill-rule: nonzero; opacity: 1;" vector-effect="non-scaling-stroke"  transform=" translate(-657.31, -207.05)" d="M 683.099 202.546 C 683.099 187.7 670.553 175.779 655.478 176.822 C 642.609 177.708 632.253 188.245 631.557 201.123 C 631.249 206.83 632.798 212.158 635.66 216.562 C 639.233 222.064 642.024 228.032 643.565 234.404 L 644.277 237.344 L 670.34 237.344 L 670.957 234.799 C 672.546 228.245 675.399 222.111 679.036 216.435 C 681.605 212.427 683.099 207.66 683.099 202.546 Z" stroke-linecap="round" />
</g>
<g transform="matrix(1 0 0 1 633.18 509.06)"  >
<path style="stroke: rgb(39,5,4); stroke-width: 1.58104; stroke-dasharray: none; stroke-linecap: round; stroke-dashoffset: 0; stroke-linejoin: round; stroke-miterlimit: 10; fill: none; fill-rule: nonzero; opacity: 1;" vector-effect="non-scaling-stroke"  transform=" translate(-663.18, -219.06)" d="M 669.397 201.259 C 669.714 204.54 668.615 207.931 666.101 210.445 C 663.587 212.959 660.196 214.058 656.915 213.741 L 656.915 236.856" stroke-linecap="round" />
</g>
<g transform="matrix(1 0 0 1 629.89 484.28)"  >
<path style="stroke: rgb(39,5,4); stroke-width: 1.58104; stroke-dasharray: none; stroke-linecap: round; stroke-dashoffset: 0; stroke-linejoin: round; stroke-miterlimit: 10; fill: none; fill-rule: nonzero; opacity: 1;" vector-effect="non-scaling-stroke"  transform=" translate(-659.89, -194.28)" d="M 668.408 197.63 C 667.855 196.413 667.08 195.283 666.084 194.279 C 662.076 190.271 655.823 189.867 651.365 193.061" stroke-linecap="round" />
</g>
<g transform="matrix(1 0 0 1 619.94 494.24)"  >
<path style="stroke: rgb(39,5,4); stroke-width: 1.58104; stroke-dasharray: none; stroke-linecap: round; stroke-dashoffset: 0; stroke-linejoin: round; stroke-miterlimit: 10; fill: none; fill-rule: nonzero; opacity: 1;" vector-effect="non-scaling-stroke"  transform=" translate(-649.94, -204.24)" d="M 648.715 195.716 C 645.521 200.183 645.924 206.428 649.932 210.436 C 650.928 211.432 652.067 212.207 653.284 212.76" stroke-linecap="round" />
</g>
<g transform="matrix(1 0 0 1 620.19 499.82)"  >
<path style="stroke: rgb(39,5,4); stroke-width: 1.58104; stroke-dasharray: none; stroke-linecap: round; stroke-dashoffset: 0; stroke-linejoin: round; stroke-miterlimit: 10; fill: none; fill-rule: nonzero; opacity: 1;" vector-effect="non-scaling-stroke"  transform=" translate(-650.19, -209.82)" d="M 651.288 206.887 L 653.272 212.76 L 647.114 212.31" stroke-linecap="round" />
</g>
<g transform="matrix(1 0 0 1 624.32 481.31)"  >
<path style="stroke: rgb(39,5,4); stroke-width: 1.58104; stroke-dasharray: none; stroke-linecap: round; stroke-dashoffset: 0; stroke-linejoin: round; stroke-miterlimit: 10; fill: none; fill-rule: nonzero; opacity: 1;" vector-effect="non-scaling-stroke"  transform=" translate(-654.32, -191.31)" d="M 657.279 194.476 L 651.366 193.061 L 654.449 188.136" stroke-linecap="round" />
</g>
<g transform="matrix(1 0 0 1 639.33 493.59)"  >
<path style="stroke: rgb(39,5,4); stroke-width: 1.58104; stroke-dasharray: none; stroke-linecap: round; stroke-dashoffset: 0; stroke-linejoin: round; stroke-miterlimit: 10; fill: none; fill-rule: nonzero; opacity: 1;" vector-effect="non-scaling-stroke"  transform=" translate(-669.33, -203.59)" d="M 665.862 206.095 L 669.3 201.083 L 672.794 205.739" stroke-linecap="round" />
</g>
<g transform="matrix(1 0 0 1 615.28 480.64)"  >
<path style="stroke: rgb(255,255,255); stroke-width: 0.790518; stroke-dasharray: none; stroke-linecap: round; stroke-dashoffset: 0; stroke-linejoin: round; stroke-miterlimit: 10; fill: none; fill-rule: nonzero; opacity: 1;" vector-effect="non-scaling-stroke"  transform=" translate(-645.28, -190.64)" d="M 655.142 180.625 C 644.533 181.36 635.988 190.04 635.419 200.664" stroke-linecap="round" />
</g>
<g transform="matrix(1 0 0 1 627.31 536.81)"  >
<path style="stroke: none; stroke-width: 1; stroke-dasharray: none; stroke-linecap: butt; stroke-dashoffset: 0; stroke-linejoin: miter; stroke-miterlimit: 4; fill: rgb(39,5,4); fill-rule: nonzero; opacity: 1;" vector-effect="non-scaling-stroke"  transform=" translate(-657.31, -246.81)" d="M 670.978 249.708 C 672.583 249.708 673.879 248.412 673.879 246.807 C 673.879 245.202 672.583 243.906 670.978 243.906 L 670.337 243.906 L 670.337 241.874 L 670.978 241.874 C 672.583 241.874 673.879 240.578 673.879 238.973 C 673.879 237.368 672.583 236.072 670.978 236.072 L 643.642 236.072 C 642.037 236.072 640.74 237.368 640.74 238.973 C 640.74 240.578 642.037 241.874 643.642 241.874 L 644.282 241.874 L 644.282 243.906 L 643.642 243.906 C 642.037 243.906 640.74 245.202 640.74 246.807 C 640.74 248.412 642.037 249.708 643.642 249.708 L 644.282 249.708 L 644.282 251.74 L 643.642 251.74 C 642.037 251.74 640.74 253.036 640.74 254.641 C 640.74 256.246 642.037 257.542 643.642 257.542 L 670.978 257.542 C 672.583 257.542 673.879 256.246 673.879 254.641 C 673.879 253.036 672.583 251.74 670.978 251.74 L 670.337 251.74 L 670.337 249.708 L 670.978 249.708 Z" stroke-linecap="round" />
</g>
<g transform="matrix(1 0 0 1 627.31 531.87)"  >
<path style="stroke: rgb(255,255,255); stroke-width: 0.790518; stroke-dasharray: none; stroke-linecap: round; stroke-dashoffset: 0; stroke-linejoin: round; stroke-miterlimit: 10; fill: none; fill-rule: nonzero; opacity: 1;" vector-effect="non-scaling-stroke"  transform=" translate(-657.31, -241.87)" d="M 644.28 241.873 L 670.344 241.873" stroke-linecap="round" />
</g>
<g transform="matrix(1 0 0 1 627.31 539.71)"  >
<path style="stroke: rgb(255,255,255); stroke-width: 0.790518; stroke-dasharray: none; stroke-linecap: round; stroke-dashoffset: 0; stroke-linejoin: round; stroke-miterlimit: 10; fill: none; fill-rule: nonzero; opacity: 1;" vector-effect="non-scaling-stroke"  transform=" translate(-657.31, -249.71)" d="M 670.344 249.708 L 644.28 249.708" stroke-linecap="round" />
</g>
</svg>