<svg xmlns="http://www.w3.org/2000/svg" xml:space="preserve" width="1.70666in" height="1.70666in" version="1.1" style="shape-rendering:geometricPrecision; text-rendering:geometricPrecision; image-rendering:optimizeQuality; fill-rule:evenodd; clip-rule:evenodd" viewBox="0 0 1707 1707" xmlns:xlink="http://www.w3.org/1999/xlink">
 <defs>
  <style type="text/css">

    .fil0 {fill:black}

  </style>
 </defs>
 <g id="Layer_x0020_1">
  <metadata id="CorelCorpID_0Corel-Layer"></metadata>
  <g id="_336967872">
   <g>
    <path class="fil0" d="M1417 1707l-1127 0c-23,0 -42,-18 -42,-39l0 -1324c0,-23 18,-39 42,-39l254 0c14,0 25,11 25,25 0,14 -11,25 -25,25l-248 0 0 1305 1114 0 0 -1305 -247 0c-14,0 -25,-11 -25,-25 0,-14 11,-25 25,-25l254 0c24,0 42,16 42,39l0 1324c0,21 -20,39 -42,39zm0 -1354l0 0 0 0z"></path>
   </g>
   <g>
    <path class="fil0" d="M1117 467l-528 0c-20,0 -38,-18 -38,-39l0 -201c0,-22 16,-39 38,-39l52 0c12,-105 103,-189 212,-189 110,0 202,84 213,189l51 0c21,0 39,18 39,39l0 201c-1,23 -18,39 -39,39zm-516 -48l506 0 0 -182 -63 0c-14,0 -25,-11 -25,-24 0,-90 -75,-165 -166,-165 -90,0 -165,74 -165,165 0,14 -11,24 -25,24l-64 0 0 182 2 0z"></path>
   </g>
   <g>
    <path class="fil0" d="M853 353c-65,0 -118,-54 -118,-119 0,-65 53,-119 118,-119 66,0 120,54 120,119 0,65 -54,119 -120,119zm0 -190c-39,0 -69,32 -69,71 0,39 32,71 69,71 39,0 71,-32 71,-71 -1,-39 -32,-71 -71,-71z"></path>
   </g>
   <g>
    <g>
     <g>
      <g>
       <path class="fil0" d="M1320 656l-492 0c-14,0 -25,-11 -25,-25 0,-14 11,-25 25,-25l492 0c14,0 25,11 25,25 0,14 -11,25 -25,25z"></path>
      </g>
      <g>
       <path class="fil0" d="M1320 763l-492 0c-14,0 -25,-11 -25,-25 0,-14 11,-25 25,-25l492 0c14,0 25,11 25,25 0,14 -11,25 -25,25z"></path>
      </g>
      <g>
       <path class="fil0" d="M1320 871l-492 0c-14,0 -25,-11 -25,-25 0,-13 11,-25 25,-25l492 0c14,0 25,12 25,25 0,14 -11,25 -25,25z"></path>
      </g>
      <g>
       <path class="fil0" d="M1320 978l-492 0c-14,0 -25,-11 -25,-25 0,-14 11,-25 25,-25l492 0c14,0 25,11 25,25 0,14 -11,25 -25,25z"></path>
      </g>
     </g>
     <g>
      <path class="fil0" d="M685 978l-284 0c-21,0 -39,-16 -39,-37l0 -296c0,-21 16,-39 39,-39l286 0c21,0 39,17 39,39l0 296c-2,21 -18,37 -41,37zm-275 -48l266 0 0 -274 -266 0 0 274zm275 -274l0 0 0 0z"></path>
     </g>
     <g>
      <path class="fil0" d="M509 873c-6,0 -13,-3 -17,-7l-43 -43c-9,-10 -9,-25 0,-35 10,-10 25,-10 35,0l26 26 95 -94c9,-10 25,-10 34,0 10,10 10,25 0,35l-111 111c-7,4 -13,7 -19,7z"></path>
     </g>
    </g>
    <g>
     <g>
      <g>
       <path class="fil0" d="M1320 1198l-492 0c-14,0 -25,-11 -25,-25 0,-14 11,-25 25,-25l492 0c14,0 25,11 25,25 0,14 -11,25 -25,25z"></path>
      </g>
      <g>
       <path class="fil0" d="M1320 1305l-492 0c-14,0 -25,-11 -25,-25 0,-14 11,-25 25,-25l492 0c14,0 25,11 25,25 0,14 -11,25 -25,25z"></path>
      </g>
      <g>
       <path class="fil0" d="M1320 1412l-492 0c-14,0 -25,-12 -25,-25 0,-14 11,-25 25,-25l492 0c14,0 25,11 25,25 0,13 -11,25 -25,25z"></path>
      </g>
      <g>
       <path class="fil0" d="M1320 1520l-492 0c-14,0 -25,-11 -25,-25 0,-14 11,-25 25,-25l492 0c14,0 25,11 25,25 0,14 -11,25 -25,25z"></path>
      </g>
     </g>
     <g>
      <path class="fil0" d="M685 1520l-284 0c-21,0 -39,-17 -39,-39l0 -294c0,-21 16,-39 39,-39l286 0c21,0 39,16 39,39l0 294c-2,22 -18,39 -41,39zm-275 -49l266 0 0 -275 -266 0 0 275zm275 -275l0 0 0 0z"></path>
     </g>
     <g>
      <path class="fil0" d="M509 1413c-6,0 -13,-3 -17,-7l-43 -43c-9,-10 -9,-25 0,-35 10,-9 25,-9 35,0l26 27 95 -95c9,-10 25,-10 34,0 10,10 10,25 0,35l-111 111c-7,6 -13,7 -19,7z"></path>
     </g>
    </g>
   </g>
  </g>
 </g>
</svg>