<svg id="Layer_1" width="100px" height="100px" data-name="Layer 1" xmlns="http://www.w3.org/2000/svg" xmlns:xlink="http://www.w3.org/1999/xlink" viewBox="0 0 500 500"><defs><style>.cls-1,.cls-5{fill:none;stroke-linecap:round;stroke-linejoin:round;stroke-width:7px;}.cls-1{stroke:url(#New_Gradient_Swatch_2);}.cls-2,.cls-3{fill-rule:evenodd;}.cls-2{fill:url(#linear-gradient);}.cls-3{fill:url(#linear-gradient-2);}.cls-4{fill:#9baad7;}.cls-5{opacity:0.24;stroke:url(#New_Gradient_Swatch_2-2);}</style><linearGradient id="New_Gradient_Swatch_2" x1="20.2" y1="233.48" x2="474.47" y2="233.48" gradientUnits="userSpaceOnUse"><stop offset="0" stop-color="#4bbb87"/><stop offset="0.12" stop-color="#4ab68e"/><stop offset="0.3" stop-color="#49a9a3"/><stop offset="0.51" stop-color="#4696c1"/><stop offset="0.61" stop-color="#4e89bc"/><stop offset="0.85" stop-color="#5d6fb2"/><stop offset="1" stop-color="#6365ae"/></linearGradient><linearGradient id="linear-gradient" x1="57.24" y1="122.06" x2="28.25" y2="145.99" gradientTransform="matrix(0.74, 0.38, 0.38, -0.75, -36.03, 446.85)" gradientUnits="userSpaceOnUse"><stop offset="0" stop-color="#81b1df"/><stop offset="0.41" stop-color="#a7caeb"/><stop offset="1" stop-color="#dfebf8"/></linearGradient><linearGradient id="linear-gradient-2" x1="88" y1="112.32" x2="46.32" y2="132.14" xlink:href="#linear-gradient"/><linearGradient id="New_Gradient_Swatch_2-2" x1="19.2" y1="230.48" x2="473.47" y2="230.48" xlink:href="#New_Gradient_Swatch_2"/></defs><path class="cls-1" d="M471,66.21A61.79,61.79,0,0,1,456.4,76.73c-13.61,7-25,6.21-46.43,6.73-23.52.57-35.28.85-43.54,2.91A99.64,99.64,0,0,0,322.74,110a96.29,96.29,0,0,0-24,36.81c-4,11.21-5.24,21.75-6,28-1.69,14.1.1,15.34-1.72,26.29a98,98,0,0,1-11.14,31.55c-6.77,12.06-14.38,19.44-19.7,24.53-6.48,6.19-19.08,18-39.42,25.42-18.81,6.87-34.46,6.44-42.84,6.13-13.88-.52-25.6-.95-37.7-8.76-5.47-3.53-17.44-11.25-20.57-26.29-2.83-13.63,2.64-28.14,12.86-36.81,12.6-10.69,27.82-8.55,32.56-7.89,23,3.25,35.21,23.11,37.7,27.17,8.22,13.43,9,26.5,9.42,34.18.94,16.15-3,28.28-6,37.68a134.18,134.18,0,0,1-16.28,33.3,151.21,151.21,0,0,1-18,22.79c-7,7.23-16.62,17-31.7,24.53-12.08,6-22.07,7.79-32.56,9.64C88.8,401.68,74,400.81,63.11,400.1A225.74,225.74,0,0,1,23.7,394"/><polygon class="cls-2" points="64.06 334.82 19.29 368.38 72.17 349.49 64.06 334.82"/><polygon class="cls-3" points="78.16 360.31 19.29 368.38 86.97 376.23 78.16 360.31"/><polygon class="cls-4" points="72.17 349.49 66.87 359.93 19.29 368.38 72.17 349.49"/><polygon class="cls-4" points="66.87 359.93 78.16 360.31 19.29 368.38 66.87 359.93"/><path class="cls-5" d="M470,63.21A61.79,61.79,0,0,1,455.4,73.73c-13.61,7-25,6.21-46.43,6.73-23.52.57-35.28.85-43.54,2.91A99.64,99.64,0,0,0,321.74,107a96.29,96.29,0,0,0-24,36.81c-4,11.21-5.24,21.75-6,28-1.69,14.1.1,15.34-1.72,26.29a98,98,0,0,1-11.14,31.55c-6.77,12.06-14.38,19.44-19.7,24.53-6.48,6.19-19.08,18-39.42,25.42-18.81,6.87-34.46,6.44-42.84,6.13-13.88-.52-25.6-.95-37.7-8.76-5.47-3.53-17.44-11.25-20.57-26.29-2.83-13.63,2.64-28.14,12.86-36.81,12.6-10.69,27.82-8.55,32.56-7.89,23,3.25,35.21,23.11,37.7,27.17,8.22,13.43,9,26.5,9.42,34.18.94,16.15-3,28.28-6,37.68a134.18,134.18,0,0,1-16.28,33.3,151.21,151.21,0,0,1-18,22.79c-7,7.23-16.62,17-31.7,24.53-12.08,6-22.07,7.79-32.56,9.64C87.8,398.68,73,397.81,62.11,397.1A225.74,225.74,0,0,1,22.7,391"/></svg>