<?xml version="1.0" encoding="iso-8859-1"?>
<!-- Generator: Adobe Illustrator 23.0.4, SVG Export Plug-In . SVG Version: 6.00 Build 0)  -->
<svg version="1.1" id="Layer_1_1_" xmlns="http://www.w3.org/2000/svg" xmlns:xlink="http://www.w3.org/1999/xlink" x="0px" y="0px"
	 viewBox="0 0 64 64" style="enable-background:new 0 0 64 64;" xml:space="preserve">
<path d="M16,28.816V44h2V28.816c1.161-0.414,2-1.514,2-2.816c0-1.654-1.346-3-3-3s-3,1.346-3,3C14,27.302,14.839,28.402,16,28.816z
	 M17,25c0.552,0,1,0.449,1,1s-0.448,1-1,1s-1-0.449-1-1S16.448,25,17,25z"/>
<path d="M17,18C8.729,18,2,24.729,2,33c0,5.131,2.668,9.935,7,12.675V49c0,0.28,0.116,0.531,0.302,0.713C9.114,50.105,9,50.538,9,51
	c0,1.046,0.54,1.967,1.354,2.504C10.136,53.907,10,54.362,10,54.852v0.297c0,1.307,0.888,2.399,2.089,2.735
	C12.509,60.219,14.546,62,17,62s4.491-1.781,4.911-4.117C23.112,57.547,24,56.455,24,55.148v-0.297c0-0.49-0.136-0.945-0.354-1.348
	C24.46,52.967,25,52.046,25,51c0-0.462-0.114-0.895-0.301-1.287C24.884,49.531,25,49.28,25,49v-3.325c4.332-2.741,7-7.544,7-12.675
	C32,24.729,25.271,18,17,18z M17,60c-1.302,0-2.402-0.839-2.816-2h5.631C19.402,59.161,18.302,60,17,60z M22,55.148
	C22,55.618,21.618,56,21.148,56h-8.297C12.382,56,12,55.618,12,55.148v-0.297C12,54.382,12.382,54,12.852,54h8.297
	C21.618,54,22,54.382,22,54.852V55.148z M22,52H12c-0.552,0-1-0.449-1-1s0.448-1,1-1h10c0.552,0,1,0.449,1,1S22.552,52,22,52z
	 M23.499,44.247C23.19,44.425,23,44.755,23,45.112V48h-5v-2h-2v2h-5v-2.888c0-0.357-0.19-0.687-0.499-0.865
	C6.491,41.923,4,37.614,4,33c0-7.168,5.832-13,13-13s13,5.832,13,13C30,37.614,27.509,41.923,23.499,44.247z"/>
<path d="M20,35v8h2v-7.586l0.715-0.715C23.106,34.887,23.538,35,24,35c1.654,0,3-1.346,3-3s-1.346-3-3-3s-3,1.346-3,3
	c0,0.462,0.113,0.894,0.301,1.285l-1.008,1.008C20.105,34.48,20,34.735,20,35z M24,31c0.552,0,1,0.449,1,1s-0.448,1-1,1
	s-1-0.449-1-1S23.448,31,24,31z"/>
<path d="M10,35c0.462,0,0.894-0.113,1.285-0.301L12,35.414V43h2v-8c0-0.265-0.105-0.52-0.293-0.707l-1.008-1.008
	C12.887,32.894,13,32.462,13,32c0-1.654-1.346-3-3-3s-3,1.346-3,3S8.346,35,10,35z M10,31c0.552,0,1,0.449,1,1s-0.448,1-1,1
	s-1-0.449-1-1S9.448,31,10,31z"/>
<path d="M51,18c2.757,0,5-2.243,5-5s-2.243-5-5-5s-5,2.243-5,5S48.243,18,51,18z M51,10c1.654,0,3,1.346,3,3s-1.346,3-3,3
	s-3-1.346-3-3S49.346,10,51,10z"/>
<path d="M40,15c0,0.552,0.447,1,1,1h1.522c0.105,0.297,0.227,0.589,0.361,0.873l-1.076,1.077c-0.188,0.188-0.293,0.442-0.293,0.707
	s0.105,0.52,0.293,0.707l2.828,2.829c0.391,0.391,1.023,0.391,1.414,0l1.077-1.076c0.284,0.135,0.575,0.256,0.873,0.361V23
	c0,0.552,0.447,1,1,1h4c0.553,0,1-0.448,1-1v-1.522c0.298-0.105,0.589-0.226,0.873-0.361l1.077,1.076
	c0.391,0.391,1.023,0.391,1.414,0l2.828-2.829c0.188-0.188,0.293-0.442,0.293-0.707s-0.105-0.52-0.293-0.707l-1.076-1.077
	c0.135-0.284,0.256-0.576,0.361-0.873H61c0.553,0,1-0.448,1-1v-4c0-0.552-0.447-1-1-1h-1.522c-0.105-0.297-0.227-0.589-0.361-0.873
	l1.076-1.077c0.188-0.188,0.293-0.442,0.293-0.707s-0.105-0.52-0.293-0.707l-2.828-2.829c-0.391-0.391-1.023-0.391-1.414,0
	l-1.077,1.076C54.589,4.749,54.298,4.628,54,4.522V3c0-0.552-0.447-1-1-1h-4c-0.553,0-1,0.448-1,1v1.522
	c-0.298,0.105-0.589,0.226-0.873,0.361L46.05,3.808c-0.391-0.391-1.023-0.391-1.414,0l-2.828,2.829
	c-0.188,0.188-0.293,0.442-0.293,0.707s0.105,0.52,0.293,0.707l1.076,1.077C42.749,9.411,42.628,9.703,42.522,10H41
	c-0.553,0-1,0.448-1,1V15z M42,12h1.262c0.456,0,0.854-0.308,0.968-0.75c0.164-0.634,0.415-1.24,0.746-1.8
	c0.231-0.393,0.168-0.893-0.154-1.215l-0.893-0.892l1.414-1.415l0.893,0.892c0.323,0.324,0.824,0.387,1.216,0.154
	c0.559-0.33,1.164-0.58,1.799-0.744C49.691,6.117,50,5.718,50,5.262V4h2v1.262c0,0.456,0.309,0.854,0.75,0.968
	c0.635,0.164,1.24,0.414,1.799,0.744c0.392,0.231,0.893,0.17,1.216-0.154l0.893-0.892l1.414,1.415l-0.893,0.892
	c-0.322,0.322-0.386,0.822-0.154,1.215c0.331,0.56,0.582,1.166,0.746,1.8c0.114,0.441,0.512,0.75,0.968,0.75H60v2h-1.262
	c-0.456,0-0.854,0.308-0.968,0.75c-0.164,0.634-0.415,1.24-0.746,1.8c-0.231,0.393-0.168,0.893,0.154,1.215l0.893,0.892
	l-1.414,1.415l-0.893-0.892c-0.322-0.322-0.822-0.386-1.216-0.154c-0.559,0.33-1.164,0.58-1.799,0.744
	C52.309,19.883,52,20.282,52,20.738V22h-2v-1.262c0-0.456-0.309-0.854-0.75-0.968c-0.635-0.164-1.24-0.414-1.799-0.744
	c-0.392-0.231-0.894-0.17-1.216,0.154l-0.893,0.892l-1.414-1.415l0.893-0.892c0.322-0.322,0.386-0.822,0.154-1.215
	c-0.331-0.56-0.582-1.166-0.746-1.8C44.115,14.308,43.718,14,43.262,14H42V12z"/>
<path d="M22.53,9.122C23.212,9.663,24.063,10,25,10c2.206,0,4-1.794,4-4c0-0.038-0.01-0.073-0.011-0.111
	c3.482-1.036,7.197-1.169,10.788-0.344l0.447-1.949c-3.922-0.9-7.987-0.756-11.796,0.376C27.73,2.797,26.462,2,25,2
	c-2.206,0-4,1.794-4,4c0,0.545,0.111,1.064,0.309,1.538c-2.842,2.109-5.185,4.854-6.799,8.006l1.779,0.911
	C17.77,13.566,19.922,11.05,22.53,9.122z M25,4c1.103,0,2,0.897,2,2s-0.897,2-2,2s-2-0.897-2-2S23.897,4,25,4z"/>
<path d="M27.364,45.569l-0.729,1.862C29.297,48.472,32.111,49,35,49c2.74,0,5.408-0.499,7.954-1.438C43.688,48.434,44.774,49,46,49
	c2.206,0,4-1.794,4-4c0-0.481-0.099-0.935-0.255-1.363C54.997,39.257,58,32.878,58,26c0-0.696-0.031-1.399-0.094-2.09l-1.992,0.18
	C55.971,24.721,56,25.363,56,26c0,6.219-2.688,11.992-7.397,15.988C47.901,41.381,46.998,41,46,41c-2.206,0-4,1.794-4,4
	c0,0.258,0.029,0.509,0.076,0.753C37.335,47.442,32.034,47.395,27.364,45.569z M46,43c1.103,0,2,0.897,2,2s-0.897,2-2,2
	s-2-0.897-2-2S44.897,43,46,43z"/>
</svg>
