<svg xmlns="http://www.w3.org/2000/svg" xml:space="preserve" width="6.72in" height="6.72in" style="shape-rendering:geometricPrecision; text-rendering:geometricPrecision; image-rendering:optimizeQuality; fill-rule:evenodd; clip-rule:evenodd" viewBox="0 0 6720 6720" xmlns:xlink="http://www.w3.org/1999/xlink">
 <defs>
  <style type="text/css">

    .fil1 {fill:none}
    .fil0 {fill:black;fill-rule:nonzero}

  </style>
 </defs>
 <g id="Layer_x0020_1">
  <metadata id="CorelCorpID_0Corel-Layer"></metadata>
  <g id="_375708896">
   <path class="fil0" d="M5760 960c-305,-5 -1107,24 -1962,391 -927,397 -1915,1192 -2399,2775l598 598 598 598c1583,-484 2378,-1472 2775,-2399 366,-855 395,-1656 391,-1962zm-2024 244c960,-411 1856,-410 2099,-401l0 0c44,-2 81,33 83,77l-80 3 80 -3c9,233 14,1137 -401,2105 -415,970 -1250,2005 -2916,2501 -29,11 -62,5 -85,-18l0 0 -632 -632 -630 -630c-21,-20 -30,-51 -22,-81l0 0c495,-1670 1532,-2506 2503,-2922z"></path>
   <path class="fil0" d="M4523 2197c140,140 210,324 210,508 0,184 -70,367 -210,508 -140,140 -324,210 -508,210 -184,0 -367,-70 -508,-210 -140,-140 -210,-324 -210,-508 0,-184 70,-367 210,-508 140,-140 324,-210 508,-210 184,0 367,70 508,210zm50 508c0,-143 -54,-286 -163,-395 -109,-109 -252,-163 -395,-163 -143,0 -286,54 -395,163 -109,109 -163,252 -163,395 0,143 54,286 163,395 109,109 252,163 395,163 143,0 286,-54 395,-163 109,-109 163,-252 163,-395z"></path>
   <path class="fil0" d="M992 3603l411 31c90,-225 190,-431 299,-621 65,-114 134,-222 205,-325 -123,60 -257,139 -387,239 -209,162 -407,382 -528,675zm457 195l-571 -44c-8,0 -16,-2 -24,-4 -42,-14 -64,-59 -50,-101l0 0c127,-378 366,-652 618,-848 250,-193 512,-310 693,-375 26,-10 56,-7 80,12 35,28 40,78 13,112l0 0c-130,162 -253,343 -368,543 -113,198 -217,414 -308,648 -10,35 -45,60 -83,57l0 0z"></path>
   <path class="fil0" d="M2966 5842l-44 -571 0 0c-3,-38 22,-72 57,-83 235,-91 450,-195 648,-308 200,-115 380,-238 543,-368l0 0c35,-28 85,-22 112,13 19,23 22,54 12,80 -65,181 -182,444 -375,693 -196,253 -470,492 -848,618l0 0c-42,14 -87,-8 -101,-50 -3,-8 -4,-16 -4,-24zm120 -525l31 411c294,-121 513,-319 675,-528 100,-130 179,-264 239,-386 -103,72 -211,140 -325,205 -190,109 -396,209 -621,299z"></path>
   <path class="fil0" d="M1373 4550l797 797c15,15 36,23 56,23 20,0 40,-7 55,-22 1,-1 1,-1 2,-2 15,-15 22,-35 22,-55 0,-20 -8,-41 -23,-56l0 0 -797 -797c-15,-15 -36,-23 -56,-23 -20,0 -41,8 -56,23l0 0 0 0c-15,15 -23,36 -23,56l0 0c0,20 8,41 23,56zm684 910l-797 -797c-46,-46 -70,-108 -70,-169l0 0c0,-61 23,-121 68,-167 1,-1 2,-2 4,-4 46,-45 107,-68 167,-68 61,0 123,23 169,70l797 797 0 0c47,47 70,108 70,169 0,61 -23,122 -69,169l-1 1 0 0c-47,47 -108,70 -169,70 -61,0 -123,-23 -169,-70z"></path>
   <path class="fil0" d="M1883 5634c-46,41 -398,332 -888,127l31 -74 -31 74c-22,-9 -38,-27 -45,-48 -212,-515 122,-875 134,-888l0 0 0 0 0 0c1,-1 3,-3 4,-4 48,-51 99,-90 152,-119 59,-32 120,-52 181,-60l0 0c34,-5 67,13 82,43 1,2 2,3 3,5 1,2 4,4 7,8l511 511c2,2 4,4 6,5 3,2 5,4 6,5l-44 67 44 -67c28,19 41,53 34,84 -9,58 -28,117 -59,173 -30,54 -70,106 -123,155l0 0c-2,2 -3,3 -5,4zm-796 -8c387,144 656,-81 688,-110 1,-1 2,-2 4,-3l55 59 -54 -58c40,-37 70,-76 91,-115 15,-27 26,-55 34,-83l-505 -505 -1 -1c-28,7 -55,18 -82,33 -38,21 -76,50 -112,88 -1,1 -2,3 -3,4l-58 -55 58 55c-1,1 -267,279 -113,692z"></path>
  </g>
 </g>
 <rect class="fil1" width="6720" height="6720"></rect>
</svg>